<svg width="116" height="116" viewBox="0 0 116 116" fill="none" xmlns="http://www.w3.org/2000/svg">
<rect opacity="0.14" width="116" height="116" rx="30" fill="#9E28B5"/>
<path fill-rule="evenodd" clip-rule="evenodd" d="M58.8987 34.8794C58.3125 34.706 57.6868 34.706 57.1007 34.8794C56.9387 34.9272 56.6549 35.0454 56.0504 35.4974C55.4142 35.9732 54.6343 36.6527 53.4174 37.7175L38.2124 51.0219C36.8189 52.2412 36.5574 52.5039 36.3814 52.7632C36.1758 53.066 36.026 53.3963 35.9362 53.74C35.8574 54.0416 35.8333 54.4074 35.8333 56.2653V80.1668H48.5V70.6668C48.5 65.4201 52.7533 61.1668 58 61.1668C63.2467 61.1668 67.5 65.4201 67.5 70.6668V80.1668H80.1667V56.2653C80.1667 54.4121 80.1414 54.0427 80.0623 53.74C79.9709 53.3902 79.8214 53.0608 79.6194 52.7632C79.4435 52.504 79.1821 52.2415 77.7882 51.0219L62.5882 37.7219C61.3697 36.6557 60.5884 35.9751 59.9512 35.4987C59.3457 35.046 59.0612 34.9274 58.8987 34.8794ZM86.5 80.1668V56.2653C86.5 56.174 86.5001 56.0835 86.5001 55.9936C86.5014 54.5767 86.5025 53.3349 86.1899 52.1388C85.9167 51.093 85.4676 50.1019 84.8595 49.2061C84.1647 48.1825 83.2295 47.3656 82.1607 46.432C82.0939 46.3737 82.0266 46.3149 81.9588 46.2555L66.678 32.8849C65.5663 31.9121 64.6004 31.0668 63.7436 30.4262C62.8343 29.7465 61.8626 29.1514 60.6947 28.806C58.9363 28.286 57.063 28.286 55.3046 28.806C54.1372 29.1513 53.1661 29.7461 52.2578 30.4252C51.403 31.0644 50.4395 31.9075 49.3313 32.8772L49.2469 32.9511L34.0418 46.2555C33.9746 46.3144 33.9078 46.3728 33.8415 46.4307C32.7717 47.3652 31.8364 48.1821 31.1414 49.2061C30.5368 50.0966 30.0834 51.087 29.8086 52.1388C29.4971 53.3308 29.4984 54.5703 29.4998 55.9762C29.4999 56.0718 29.5 56.1681 29.5 56.2653V80.1668H26.3333C24.5844 80.1668 23.1667 81.5846 23.1667 83.3335C23.1667 85.0824 24.5844 86.5002 26.3333 86.5002H89.6667C91.4156 86.5002 92.8333 85.0824 92.8333 83.3335C92.8333 81.5846 91.4156 80.1668 89.6667 80.1668H86.5ZM61.1667 80.1668V70.6668C61.1667 68.9179 59.7489 67.5002 58 67.5002C56.2511 67.5002 54.8333 68.9179 54.8333 70.6668V80.1668H61.1667Z" fill="#9E28B5"/>
</svg>
