<svg width="116" height="116" viewBox="0 0 116 116" fill="none" xmlns="http://www.w3.org/2000/svg">
<rect opacity="0.14" width="116" height="116" rx="30" fill="#9E28B5"/>
<path d="M57.9983 55.3741C57.9983 56.0884 58.282 56.7734 58.787 57.2785C59.2921 57.7836 59.9771 58.0673 60.6913 58.0673C61.4056 58.0673 62.0906 57.7836 62.5956 57.2785C63.1006 56.7734 63.3844 56.0884 63.3844 55.3741C63.3844 54.6598 63.1006 53.9747 62.5956 53.4696C62.0906 52.9646 61.4056 52.6808 60.6913 52.6808C59.9771 52.6808 59.2921 52.9646 58.787 53.4696C58.282 53.9747 57.9983 54.6598 57.9983 55.3741ZM82.707 79.1354L70.4065 47.2943V35.5786H75.2338V31H40.7627V35.5786H45.59V47.2943L33.2895 79.1354C33.101 79.6337 33 80.1589 33 80.6908C33 83.0676 34.9323 85 37.3089 85H78.6877C79.2195 85 79.7447 84.899 80.2429 84.7105C82.4647 83.8554 83.5688 81.3574 82.707 79.1354ZM50.1682 48.1494V35.7132H65.8283V48.1494L71.9483 63.9925C70.5546 63.6357 69.1138 63.4539 67.6461 63.4539C63.5258 63.4539 59.6208 64.9015 56.5171 67.4938C54.2264 69.4075 51.3352 70.4539 48.3504 70.4496C46.1488 70.4496 44.0348 69.8908 42.1698 68.8539L50.1682 48.1494ZM37.6994 80.4214L40.5069 73.1631C42.9104 74.3818 45.5833 75.0349 48.3571 75.0349C52.4775 75.0349 56.3824 73.5873 59.4862 70.995C61.7685 69.0963 64.6232 68.0392 67.6529 68.0392C70.0093 68.0392 72.258 68.6788 74.2239 69.8638L78.2972 80.4214H37.6994Z" fill="#9E28B5"/>
</svg>
