<svg width="116" height="116" viewBox="0 0 116 116" fill="none" xmlns="http://www.w3.org/2000/svg">
<rect opacity="0.14" width="116" height="116" rx="30" fill="#9E28B5"/>
<path fill-rule="evenodd" clip-rule="evenodd" d="M47.4445 31L59.8642 31C60.1942 31 60.4996 31 60.7747 31.0025C61.5769 31.0098 62.3458 31.0352 63.1485 31.228C63.9924 31.4306 64.7964 31.7651 65.5327 32.2163C66.3728 32.7311 67.0705 33.4301 67.8604 34.2215C67.9139 34.2751 67.9679 34.3292 68.0223 34.3836L76.6173 42.9787C76.6687 43.0301 76.7198 43.0811 76.7704 43.1317C77.568 43.9279 78.2653 44.6241 78.7818 45.4669C79.2328 46.2029 79.5677 47.0074 79.7704 47.8517C79.9518 48.6071 79.9856 49.3325 79.9953 50.087C79.9984 50.1409 80 50.1953 80 50.25C80 50.2868 79.9993 50.3234 79.9978 50.3598C79.9994 50.6018 79.9995 50.8647 79.9995 51.1456V74.5659C79.9995 76.0125 79.9996 77.2609 79.9155 78.2895C79.8267 79.3753 79.6306 80.4554 79.1009 81.4951C78.3092 83.0489 77.0442 84.3112 75.4933 85.1014C74.4536 85.6311 73.3735 85.8272 72.2877 85.916C71.2591 86.0001 70.0107 86 68.564 86L47.4355 86C45.9888 86.0001 44.7398 86.0001 43.7108 85.916C42.6248 85.8273 41.5439 85.6313 40.5039 85.1014C38.9501 84.3097 37.6893 83.0459 36.8992 81.4952C36.3691 80.4547 36.1729 79.3737 36.0841 78.2865C35.9999 77.2566 36 76.0062 36 74.5566V42.4446C36 40.9949 35.9999 39.744 36.0841 38.7137C36.1729 37.6264 36.3689 36.5447 36.8992 35.504C37.6901 33.9516 38.9516 32.6902 40.5039 31.8992C41.5446 31.3689 42.6264 31.1729 43.7136 31.0841C44.7439 30.9999 45.9948 31 47.4445 31ZM73.3553 47.5C73.19 47.3311 72.9849 47.1244 72.7282 46.8678L64.1332 38.2727C63.876 38.0154 63.6689 37.8098 63.4997 37.6441V41.45C63.4997 43.0355 63.5018 44.059 63.5655 44.8379C63.6265 45.5844 63.73 45.8613 63.7994 45.9974C64.0643 46.5173 64.4855 46.9384 65.0006 47.2009C65.1359 47.2698 65.4124 47.3733 66.1585 47.4343C66.9366 47.4979 67.9586 47.5 69.5411 47.5H73.3553ZM57.9997 36.5L57.9997 41.5561C57.9997 43.0057 57.9996 44.256 58.0838 45.2859C58.1727 46.373 58.3688 47.454 58.8989 48.4944C59.6886 50.0443 60.9489 51.3092 62.5036 52.1014C63.5437 52.6313 64.6246 52.8273 65.7105 52.916C66.7395 53.0001 67.9885 53.0001 69.4352 53L74.4995 53V74.4598C74.4995 76.0424 74.4974 77.0638 74.4338 77.8412C74.3729 78.5864 74.2695 78.8625 74.2004 78.9982C73.9375 79.5142 73.5153 79.9365 72.9964 80.2009C72.8608 80.27 72.5846 80.3734 71.8395 80.4343C71.062 80.4979 70.0406 80.5 68.4581 80.5L47.5415 80.5C45.959 80.5 44.9369 80.4979 44.1588 80.4343C43.4127 80.3733 43.1362 80.2698 43.0008 80.2009C42.4849 79.938 42.0641 79.5172 41.7997 78.9982C41.7303 78.8621 41.6268 78.5853 41.5657 77.8385C41.5021 77.0596 41.4999 76.0361 41.4999 74.4505V42.5505C41.4999 40.965 41.5021 39.941 41.5657 39.1614C41.6268 38.4139 41.7305 38.1367 41.7997 38.0009C42.0633 37.4835 42.4834 37.0634 43.0008 36.7997C43.1366 36.7305 43.4138 36.6269 44.1613 36.5658C44.9408 36.5021 45.9649 36.5 47.5504 36.5H57.9997ZM68.1942 59.3055C69.2681 60.3794 69.2681 62.1206 68.1942 63.1945L57.1943 74.1945C56.1204 75.2685 54.3792 75.2685 53.3052 74.1945L47.8053 68.6945C46.7314 67.6206 46.7314 65.8794 47.8053 64.8055C48.8792 63.7315 50.6204 63.7315 51.6944 64.8055L55.2498 68.3609L64.3051 59.3055C65.379 58.2315 67.1202 58.2315 68.1942 59.3055Z" fill="#9E28B5"/>
</svg>
