<svg width="116" height="116" viewBox="0 0 116 116" fill="none" xmlns="http://www.w3.org/2000/svg">
<rect opacity="0.14" width="116" height="116" rx="30" fill="#9E28B5"/>
<path fill-rule="evenodd" clip-rule="evenodd" d="M47.2 36.4C47.2 33.4177 49.6177 31 52.6 31H63.4C66.3823 31 68.8 33.4177 68.8 36.4L68.8 47.2H79.6C82.5823 47.2 85 49.6177 85 52.6V63.4C85 66.3823 82.5823 68.8 79.6 68.8L68.8 68.8V79.6C68.8 82.5823 66.3823 85 63.4 85H52.6C49.6177 85 47.2 82.5823 47.2 79.6V68.8H36.4C33.4177 68.8 31 66.3823 31 63.4V52.6C31 49.6177 33.4177 47.2 36.4 47.2H47.2V36.4ZM63.4 36.4H52.6V49.9C52.6 51.3912 51.3912 52.6 49.9 52.6H36.4V63.4H49.9C51.3912 63.4 52.6 64.6088 52.6 66.1V79.6H63.4V66.1C63.4 65.3839 63.6845 64.6972 64.1908 64.1908C64.6972 63.6845 65.3839 63.4 66.1 63.4L79.6 63.4V52.6H66.1C65.3839 52.6 64.6972 52.3155 64.1908 51.8092C63.6845 51.3028 63.4 50.6161 63.4 49.9L63.4 36.4Z" fill="#9E28B5"/>
</svg>
