<svg width="116" height="116" viewBox="0 0 116 116" fill="none" xmlns="http://www.w3.org/2000/svg">
<rect opacity="0.14" width="116" height="116" rx="30" fill="#9E28B5"/>
<path fill-rule="evenodd" clip-rule="evenodd" d="M60.7759 32.4333C60.5917 31.041 59.4045 30 58 30C56.5952 30 55.408 31.0408 55.2241 32.4333L55.221 32.4557L55.2081 32.5484C55.1958 32.633 55.1768 32.7624 55.1502 32.9316C55.0972 33.2702 55.0149 33.767 54.8996 34.3826C54.668 35.6171 54.3074 37.3125 53.7908 39.1583C52.7156 43.0022 51.1168 46.9234 49.0201 49.0201C46.9234 51.1168 43.0022 52.7156 39.1583 53.7908C37.3125 54.3074 35.6171 54.668 34.3826 54.8996C33.767 55.0149 33.2702 55.0972 32.9316 55.1502C32.7624 55.1768 32.633 55.1958 32.5484 55.2081L32.4557 55.221L32.4358 55.2238C32.4355 55.2238 32.436 55.2238 32.4358 55.2238C32.4356 55.2238 32.4331 55.2241 32.4329 55.2241C31.0406 55.4083 30 56.5955 30 58C30 59.4048 31.0408 60.592 32.4333 60.7759L32.4557 60.779L32.5484 60.7919C32.633 60.8042 32.7624 60.8232 32.9316 60.8498C33.2702 60.9028 33.767 60.9851 34.3826 61.1004C35.6171 61.332 37.3125 61.6926 39.1583 62.2092C43.0022 63.2844 46.9234 64.8832 49.0201 66.9799C51.1168 69.0765 52.7156 72.9979 53.7908 76.8418C54.3074 78.6875 54.668 80.3829 54.8996 81.6174C55.0149 82.2329 55.0972 82.7299 55.1502 83.0684C55.1768 83.2375 55.1958 83.3669 55.2081 83.4517L55.221 83.5444L55.2238 83.5643C55.2238 83.564 55.2238 83.5646 55.2238 83.5643C55.4078 84.9567 56.5952 86 58 86C59.4048 86 60.592 84.9592 60.7759 83.5668L60.779 83.5444L60.7919 83.4517C60.8042 83.3669 60.8232 83.2375 60.8498 83.0684C60.9028 82.7299 60.9851 82.2329 61.1004 81.6174C61.332 80.3829 61.6926 78.6875 62.2092 76.8418C63.2844 72.9979 64.8832 69.0765 66.9799 66.9799C69.0765 64.8832 72.9979 63.2844 76.8418 62.2092C78.6875 61.6926 80.3829 61.332 81.6174 61.1004C82.2329 60.9851 82.7299 60.9028 83.0684 60.8498C83.2375 60.8232 83.3669 60.8042 83.4517 60.7919L83.5444 60.779L83.5643 60.7762C83.564 60.7762 83.5646 60.7762 83.5643 60.7762C84.9567 60.5922 86 59.4048 86 58C86 56.5952 84.9592 55.408 83.5668 55.2241L83.5444 55.221L83.4517 55.2081C83.3669 55.1958 83.2375 55.1768 83.0684 55.1502C82.7299 55.0972 82.2329 55.0149 81.6174 54.8996C80.3829 54.668 78.6875 54.3074 76.8418 53.7908C72.9979 52.7156 69.0765 51.1168 66.9799 49.0201C64.8832 46.9234 63.2844 43.0022 62.2092 39.1583C61.6926 37.3125 61.332 35.6171 61.1004 34.3826C60.9851 33.767 60.9028 33.2702 60.8498 32.9316C60.8232 32.7624 60.8042 32.633 60.7919 32.5484L60.779 32.4557L60.7759 32.4333ZM71.6422 58C68.5403 56.8598 65.2859 55.2456 63.0201 52.9799C60.7544 50.7142 59.1402 47.4598 58 44.3577C56.8598 47.4598 55.2456 50.7142 52.9799 52.9799C50.7142 55.2456 47.4598 56.8598 44.3577 58C47.4598 59.1402 50.7142 60.7544 52.9799 63.0201C55.2456 65.2859 56.8598 68.5403 58 71.6422C59.1402 68.5403 60.7544 65.2859 63.0201 63.0201C65.2859 60.7544 68.5403 59.1402 71.6422 58Z" fill="#9E28B5"/>
</svg>
