<svg width="116" height="116" viewBox="0 0 116 116" fill="none" xmlns="http://www.w3.org/2000/svg">
<rect opacity="0.14" width="116" height="116" rx="30" fill="#9E28B5"/>
<path fill-rule="evenodd" clip-rule="evenodd" d="M62.2804 44.4804C64.3808 42.3799 67.2296 41.2 70.2 41.2C72.4151 41.2 74.5806 41.8568 76.4224 43.0875C78.2642 44.3182 79.6997 46.0674 80.5474 48.1139C81.3951 50.1604 81.6169 52.4124 81.1848 54.585C80.9379 55.8261 80.4839 57.0095 79.848 58.0882L86.1799 64.4201C87.2734 65.5135 87.2734 67.2864 86.1799 68.3798C85.0864 69.4733 83.3136 69.4733 82.2201 68.3798L75.8882 62.048C74.8096 62.6839 73.6262 63.1379 72.385 63.3847C70.2124 63.8169 67.9605 63.5951 65.9139 62.7474C63.8674 61.8997 62.1182 60.4642 60.8875 58.6223C59.6569 56.7805 59 54.6151 59 52.4C59 49.4295 60.18 46.5808 62.2804 44.4804ZM70.2 46.8C68.7148 46.8 67.2904 47.3899 66.2402 48.4402C65.19 49.4904 64.6 50.9147 64.6 52.4C64.6 53.5075 64.9284 54.5902 65.5438 55.5111C66.1591 56.4321 67.0337 57.1498 68.057 57.5737C69.0802 57.9975 70.2062 58.1084 71.2925 57.8923C72.3788 57.6763 73.3766 57.1429 74.1598 56.3597C74.943 55.5766 75.4763 54.5788 75.6924 53.4925C75.9085 52.4062 75.7976 51.2802 75.3737 50.2569C74.9499 49.2337 74.2321 48.3591 73.3112 47.7437C72.3903 47.1284 71.3076 46.8 70.2 46.8ZM42.2 60.7999C42.2 59.2536 43.4536 58 45 58H50.6C52.1464 58 53.4 59.2536 53.4 60.7999C53.4 62.3463 52.1464 63.6 50.6 63.6H45C43.4536 63.6 42.2 62.3463 42.2 60.7999ZM42.2 72C42.2 70.4536 43.4536 69.2 45 69.2H61.8C63.3464 69.2 64.6 70.4536 64.6 72C64.6 73.5463 63.3464 74.7999 61.8 74.7999H45C43.4536 74.7999 42.2 73.5463 42.2 72Z" fill="#9E28B5"/>
<path fill-rule="evenodd" clip-rule="evenodd" d="M32.6402 31.6402C33.6904 30.59 35.1148 30 36.6 30H70.2C71.7464 30 73 31.2536 73 32.8C73 34.3464 71.7464 35.6 70.2 35.6H36.6V80.4H70.2V72C70.2 70.4536 71.4536 69.2 73 69.2C74.5464 69.2 75.8 70.4536 75.8 72V80.4C75.8 81.8852 75.21 83.3096 74.1598 84.3598C73.1096 85.41 71.6852 86 70.2 86H36.6C35.1148 86 33.6904 85.41 32.6402 84.3598C31.59 83.3096 31 81.8852 31 80.4V35.6C31 34.1148 31.59 32.6904 32.6402 31.6402Z" fill="#9E28B5"/>
</svg>
