<svg width="184" height="184" viewBox="0 0 184 184" fill="none" xmlns="http://www.w3.org/2000/svg">
<g clip-path="url(#clip0_139_1268)">
<path opacity="0.14" d="M135.695 0.279785H47.3353C21.1928 0.279785 0 21.4725 0 47.6151V135.974C0 162.117 21.1928 183.31 47.3353 183.31H135.695C161.837 183.31 183.03 162.117 183.03 135.974V47.6151C183.03 21.4725 161.837 0.279785 135.695 0.279785Z" fill="#9E28B5"/>
<path d="M136.932 131.569L130.955 75.3465C130.391 69.5902 125.526 65.2495 119.653 65.2495H114.239V55.8745C114.239 46.5698 106.596 39 97.2021 39C94.4666 39 91.9205 39.7031 89.6299 40.8375C87.3393 39.7031 84.7931 39 82.0577 39C72.6634 39 65.0208 46.5704 65.0208 55.8745V65.2495H63.3313C57.5055 65.2495 52.6451 69.5762 52.0393 75.323L46.062 131.573C45.726 134.742 46.7671 137.911 48.9158 140.278C51.0644 142.645 54.1453 144 57.354 144H125.636C128.868 144 131.959 142.636 134.112 140.25C136.256 137.878 137.282 134.71 136.932 131.569ZM106.667 55.8752V65.2503H99.0951V55.8752C99.0951 52.4439 98.0445 49.2611 96.2651 46.5939C96.5774 46.5658 96.8803 46.5001 97.2021 46.5001C102.422 46.5001 106.667 50.7095 106.667 55.8752ZM87.7368 55.8752C87.7368 53.7846 88.4562 51.8721 89.6299 50.3065C90.8036 51.8674 91.5229 53.7846 91.5229 55.8752V65.2503H87.7368V55.8752ZM72.5924 55.8752C72.5924 50.7095 76.8376 46.5002 82.0577 46.5002C82.3795 46.5002 82.6824 46.5658 82.9948 46.5939C81.2105 49.2612 80.1647 52.4439 80.1647 55.8752V65.2503H72.5925L72.5924 55.8752ZM77.2494 136.501H57.3484C56.2599 136.501 55.2613 136.061 54.5373 135.259C53.8085 134.462 53.4724 133.431 53.5813 132.357L59.5586 76.1071C59.7668 74.1898 61.3807 72.7461 63.3258 72.7461H65.0153V80.2462C65.0153 82.3181 66.7095 83.9962 68.8014 83.9962C70.8933 83.9962 72.5875 82.3181 72.5875 80.2462V72.7461H91.518V80.2462C91.518 82.3181 93.2123 83.9962 95.3041 83.9962C97.396 83.9962 99.0902 82.3181 99.0902 80.2462V72.7461H103.255L110.032 136.496H77.2487L77.2494 136.501ZM128.465 135.25C127.737 136.056 126.728 136.501 125.631 136.501H117.642L110.869 72.7509H119.649C121.608 72.7509 123.226 74.1806 123.42 76.1072L129.402 132.372C129.521 133.431 129.185 134.448 128.465 135.25Z" fill="#9E28B5"/>
</g>
<defs>
<clipPath id="clip0_139_1268">
<rect width="183.03" height="183.03" fill="white" transform="translate(0 0.279785)"/>
</clipPath>
</defs>
</svg>
