<svg width="184" height="184" viewBox="0 0 184 184" fill="none" xmlns="http://www.w3.org/2000/svg">
<g clip-path="url(#clip0_139_1412)">
<path opacity="0.14" d="M135.695 0.279785H47.3353C21.1928 0.279785 0 21.4725 0 47.6151V135.974C0 162.117 21.1928 183.31 47.3353 183.31H135.695C161.837 183.31 183.03 162.117 183.03 135.974V47.6151C183.03 21.4725 161.837 0.279785 135.695 0.279785Z" fill="#9E28B5"/>
<path d="M131.209 121.76H52.7909L81.0317 93.2576L90 101.232C90.5494 101.722 91.2601 101.992 91.9963 101.992C92.7322 101.992 93.4427 101.722 93.992 101.232C93.9922 101.232 93.9923 101.232 93.9925 101.232L102.969 93.2549L131.209 121.76ZM135.187 56.25H135.186L48.8139 56.25L48.813 56.25C47.3387 56.2516 45.9248 56.8367 44.8818 57.8773C43.8387 58.918 43.2516 60.3293 43.25 61.8018V61.8027L43.25 122.197L43.25 122.198C43.2516 123.671 43.8387 125.082 44.8818 126.123C45.9248 127.163 47.3387 127.748 48.813 127.75H48.8139H135.186H135.187C136.661 127.748 138.075 127.163 139.118 126.123C140.161 125.082 140.748 123.671 140.75 122.198V122.197V61.8027V61.8018C140.748 60.3293 140.161 58.918 139.118 57.8773L138.589 58.4082L139.118 57.8773C138.075 56.8367 136.661 56.2516 135.187 56.25ZM134.75 116.817L107.455 89.2676L134.75 64.9951V116.817ZM76.5453 89.2676L49.2503 116.817V64.9951L76.5453 89.2676ZM55.1712 62.2398H128.83L92 94.986L55.1712 62.2398Z" fill="#9E28B5" stroke="#9E28B5" stroke-width="1.5"/>
</g>
<defs>
<clipPath id="clip0_139_1412">
<rect width="183.03" height="183.03" fill="white" transform="translate(0 0.279785)"/>
</clipPath>
</defs>
</svg>
