<svg width="30" height="23" viewBox="0 0 30 23" fill="none" xmlns="http://www.w3.org/2000/svg">
<g clip-path="url(#clip0_175_25)">
<mask id="mask0_175_25" style="mask-type:alpha" maskUnits="userSpaceOnUse" x="0" y="0" width="30" height="23">
<rect width="30" height="23" fill="#D9D9D9"/>
</mask>
<g mask="url(#mask0_175_25)">
</g>
<g clip-path="url(#clip1_175_25)">
<path d="M-4 0H34V23H-4V0Z" fill="#FF0000"/>
<path fill-rule="evenodd" clip-rule="evenodd" d="M15.9844 7.02495L16.1126 4.53216C16.1132 4.52103 16.1053 4.51088 16.094 4.50911C16.0825 4.50726 16.0717 4.51482 16.0692 4.5261L15.4355 6.92874C15.4336 6.93679 15.432 6.94454 15.4308 6.95231C15.4069 7.106 15.511 7.25013 15.6633 7.27428C15.8156 7.2984 15.9585 7.19343 15.9824 7.03974C15.9832 7.03478 15.9839 7.02975 15.9844 7.02495ZM16.6665 7.23529L17.1821 4.79394C17.1846 4.78298 17.1783 4.77172 17.1675 4.76816C17.1564 4.76454 17.1445 4.77026 17.1402 4.78101L16.1396 7.05304C16.1364 7.06073 16.1336 7.06809 16.1312 7.07565C16.0836 7.22356 16.1639 7.38243 16.3105 7.43049C16.4572 7.47853 16.6147 7.39754 16.6623 7.24959C16.6639 7.24475 16.6653 7.23989 16.6665 7.23529ZM17.3073 7.55136L18.1975 5.22234C18.2016 5.21196 18.1972 5.19982 18.187 5.19453C18.1766 5.1892 18.164 5.19301 18.1581 5.20297L16.8153 7.28774C16.811 7.29481 16.8072 7.30168 16.8036 7.30874C16.7335 7.44725 16.788 7.61687 16.9253 7.6876C17.0626 7.75838 17.2308 7.70338 17.3009 7.56483C17.3032 7.56031 17.3054 7.55575 17.3073 7.55136ZM17.8909 7.96462L19.1313 5.80481C19.1369 5.79516 19.1345 5.78246 19.1253 5.7757C19.1158 5.76876 19.1028 5.77052 19.0954 5.77944L17.4458 7.62659C17.4405 7.63292 17.4356 7.63912 17.431 7.64549C17.3403 7.77123 17.3678 7.94741 17.4924 8.03893C17.6171 8.13045 17.7917 8.10269 17.8825 7.97693C17.8854 7.9728 17.8883 7.96865 17.8909 7.96462ZM18.4034 8.46434L19.9619 6.52559C19.969 6.51694 19.9685 6.50405 19.9604 6.4959C19.9522 6.48752 19.939 6.48725 19.9304 6.49486L18.0159 8.06056C18.0096 8.06593 18.0039 8.07128 17.9983 8.07686C17.8893 8.18684 17.8893 8.36519 17.9983 8.47512C18.1074 8.58516 18.2841 8.58516 18.3931 8.47512C18.3967 8.47153 18.4002 8.46787 18.4034 8.46434ZM18.8325 9.03833L20.6712 7.36791C20.6795 7.36048 20.681 7.3477 20.6743 7.33837C20.6675 7.32884 20.6545 7.32644 20.6448 7.33265L18.5121 8.5787C18.505 8.583 18.4986 8.58737 18.4922 8.59202C18.3675 8.68353 18.34 8.8597 18.4308 8.98548C18.5215 9.11121 18.6961 9.13901 18.8208 9.04747C18.8249 9.04443 18.8288 9.04141 18.8325 9.03833ZM19.1677 9.67324L21.2427 8.31353C21.2521 8.30752 21.2556 8.29506 21.2504 8.28483C21.2451 8.27434 21.2326 8.26995 21.2221 8.27457L18.9224 9.16868C18.9148 9.17181 18.9077 9.17508 18.9007 9.17868C18.7634 9.24939 18.7089 9.41907 18.779 9.55761C18.8491 9.69612 19.0173 9.75108 19.1546 9.68034C19.1591 9.67805 19.1635 9.67561 19.1677 9.67324ZM19.3997 10.3536L21.661 9.34045C21.6712 9.33599 21.6766 9.32428 21.6731 9.31332C21.6695 9.30212 21.6579 9.29583 21.6468 9.29866L19.2362 9.81641C19.2282 9.81836 19.2207 9.82044 19.2132 9.8229C19.0666 9.87094 18.9863 10.0298 19.0339 10.1778C19.0815 10.3257 19.239 10.4067 19.3857 10.3586C19.3905 10.3571 19.3952 10.3554 19.3997 10.3536ZM19.5225 11.0625L21.9138 10.421C21.9245 10.4182 21.9317 10.4076 21.9299 10.3962C21.9281 10.3845 21.9177 10.3765 21.9062 10.3775L19.4449 10.506C19.4367 10.5066 19.429 10.5075 19.4212 10.5087C19.2689 10.5329 19.1648 10.677 19.1888 10.8307C19.2127 10.9843 19.3556 11.0893 19.5079 11.0652C19.5129 11.0644 19.5178 11.0635 19.5225 11.0625ZM19.5344 11.7812L21.9954 11.5221C22.0065 11.521 22.0152 11.5116 22.0152 11.5C22.0152 11.4882 22.0061 11.4786 21.9946 11.4779L19.5434 11.2194C19.5352 11.2187 19.5274 11.2183 19.5195 11.2183C19.3654 11.2183 19.2404 11.3445 19.2404 11.5C19.2404 11.6555 19.3654 11.7816 19.5195 11.7816C19.5246 11.7816 19.5296 11.7815 19.5344 11.7812ZM19.4359 12.4933L21.907 12.6226C21.9181 12.6233 21.9281 12.6153 21.9299 12.6039C21.9317 12.5923 21.9242 12.5813 21.913 12.5788L19.5313 11.9396C19.5233 11.9376 19.5156 11.9361 19.5079 11.9348C19.3556 11.9107 19.2127 12.0157 19.1888 12.1694C19.1648 12.323 19.2689 12.4672 19.4212 12.4913C19.4262 12.4921 19.4312 12.4928 19.4359 12.4933ZM19.2274 13.1814L21.6475 13.7015C21.6584 13.704 21.6695 13.6977 21.6731 13.6867C21.6767 13.6755 21.671 13.6636 21.6603 13.6593L19.4081 12.6498C19.4004 12.6466 19.3931 12.6438 19.3857 12.6414C19.239 12.5934 19.0815 12.6743 19.0339 12.8223C18.9863 12.9702 19.0666 13.1291 19.2132 13.1771C19.218 13.1787 19.2228 13.1801 19.2274 13.1814ZM18.9141 13.8278L21.2228 14.7257C21.2332 14.7299 21.2452 14.7255 21.2504 14.7152C21.2557 14.7047 21.2519 14.692 21.2421 14.686L19.1754 13.3315C19.1684 13.3271 19.1616 13.3232 19.1546 13.3197C19.0173 13.2489 18.8491 13.3039 18.779 13.4424C18.7089 13.581 18.7634 13.7506 18.9007 13.8213C18.9052 13.8236 18.9097 13.8258 18.9141 13.8278ZM18.5044 14.4165L20.6455 15.6678C20.655 15.6735 20.6676 15.671 20.6743 15.6617C20.6812 15.6522 20.6795 15.639 20.6706 15.6316L18.8395 13.9676C18.8333 13.9621 18.8271 13.9572 18.8208 13.9526C18.6961 13.861 18.5215 13.8888 18.4308 14.0146C18.34 14.1403 18.3676 14.3165 18.4922 14.408C18.4963 14.411 18.5004 14.4138 18.5044 14.4165ZM18.0091 14.9334L19.931 16.5057C19.9395 16.5128 19.9523 16.5123 19.9604 16.5041C19.9687 16.4958 19.969 16.4825 19.9614 16.4739L18.4093 14.5426C18.404 14.5362 18.3987 14.5305 18.3931 14.5249C18.2841 14.4149 18.1074 14.4149 17.9983 14.5249C17.8893 14.6349 17.8893 14.8132 17.9983 14.9231C18.0019 14.9268 18.0055 14.9302 18.0091 14.9334ZM17.44 15.3664L19.0959 17.2212C19.1033 17.2296 19.116 17.2311 19.1253 17.2243C19.1347 17.2174 19.137 17.2043 19.1309 17.1946L17.8957 15.0431C17.8914 15.0361 17.8871 15.0295 17.8825 15.0231C17.7917 14.8973 17.6171 14.8696 17.4924 14.9611C17.3678 15.0526 17.3403 15.2288 17.431 15.3545C17.434 15.3587 17.437 15.3627 17.44 15.3664ZM16.8107 15.7044L18.1585 17.7977C18.1645 17.8072 18.1768 17.8107 18.187 17.8055C18.1974 17.8001 18.2017 17.7876 18.1972 17.7769L17.3109 15.4571C17.3077 15.4494 17.3045 15.4422 17.3009 15.4352C17.2308 15.2967 17.0626 15.2417 16.9253 15.3124C16.788 15.3832 16.7335 15.5528 16.8036 15.6913C16.8059 15.6959 16.8083 15.7002 16.8107 15.7044ZM16.1362 15.9385L17.1405 18.2197C17.145 18.2299 17.1566 18.2354 17.1675 18.2319C17.1786 18.2282 17.1848 18.2165 17.182 18.2053L16.6687 15.7736C16.6668 15.7655 16.6647 15.7579 16.6623 15.7504C16.6147 15.6025 16.4572 15.5215 16.3105 15.5695C16.1639 15.6176 16.0836 15.7764 16.1312 15.9244C16.1328 15.9293 16.1344 15.934 16.1362 15.9385ZM15.4335 16.0624L16.0694 18.4747C16.0721 18.4855 16.0828 18.4928 16.094 18.4909C16.1056 18.4891 16.1136 18.4786 16.1125 18.467L15.9852 15.9842C15.9845 15.9759 15.9836 15.968 15.9825 15.9602C15.9585 15.8066 15.8156 15.7016 15.6633 15.7258C15.511 15.7499 15.4069 15.894 15.4308 16.0477C15.4316 16.0527 15.4325 16.0577 15.4335 16.0624ZM14.721 16.0744L14.9779 18.557C14.979 18.5681 14.9883 18.5769 14.9998 18.5769C15.0114 18.5769 15.021 18.5678 15.0217 18.5562L15.2779 16.0835C15.2786 16.0752 15.2789 16.0673 15.2789 16.0594C15.2789 15.9039 15.154 15.7778 14.9998 15.7778C14.8456 15.7778 14.7206 15.9039 14.7206 16.0594C14.7206 16.0645 14.7207 16.0695 14.721 16.0744ZM14.0152 15.975L13.887 18.4678C13.8863 18.479 13.8942 18.4891 13.9055 18.4909C13.917 18.4928 13.9278 18.4852 13.9304 18.4739L14.564 16.0713C14.566 16.0632 14.5675 16.0555 14.5687 16.0477C14.5926 15.894 14.4886 15.7499 14.3362 15.7258C14.1839 15.7016 14.041 15.8066 14.0171 15.9602C14.0163 15.9653 14.0157 15.9703 14.0152 15.975ZM13.333 15.7647L12.8174 18.2061C12.815 18.217 12.8212 18.2283 12.8321 18.2319C12.8432 18.2355 12.8551 18.2297 12.8593 18.219L13.86 15.947C13.8632 15.9393 13.8659 15.9319 13.8683 15.9244C13.9159 15.7764 13.8357 15.6176 13.689 15.5695C13.5424 15.5215 13.3849 15.6025 13.3373 15.7504C13.3357 15.7553 13.3343 15.7601 13.333 15.7647ZM12.6923 15.4487L11.8021 17.7777C11.798 17.7881 11.8024 17.8002 11.8126 17.8055C11.823 17.8108 11.8356 17.8071 11.8414 17.797L13.1842 15.7123C13.1886 15.7052 13.1924 15.6983 13.1959 15.6913C13.2661 15.5528 13.2116 15.3832 13.0742 15.3124C12.9369 15.2417 12.7687 15.2967 12.6987 15.4352C12.6964 15.4397 12.6942 15.4443 12.6923 15.4487ZM12.1087 15.0354L10.8683 17.1952C10.8626 17.2048 10.8651 17.2175 10.8743 17.2243C10.8837 17.2312 10.8968 17.2295 10.9041 17.2206L12.5537 15.3734C12.5591 15.3671 12.5639 15.3609 12.5685 15.3545C12.6593 15.2288 12.6318 15.0526 12.5071 14.9611C12.3824 14.8696 12.2078 14.8973 12.1171 15.0231C12.1141 15.0272 12.1113 15.0313 12.1087 15.0354ZM11.5962 14.5357L10.0377 16.4745C10.0306 16.4831 10.0311 16.496 10.0392 16.5041C10.0474 16.5125 10.0605 16.5128 10.0692 16.5052L11.9836 14.9395C11.9899 14.9341 11.9957 14.9288 12.0012 14.9231C12.1102 14.8132 12.1102 14.6349 12.0012 14.5249C11.8922 14.4149 11.7154 14.4149 11.6064 14.5249C11.6028 14.5285 11.5994 14.5322 11.5962 14.5357ZM11.167 13.9617L9.32833 15.6321C9.32001 15.6395 9.3185 15.6523 9.32523 15.6617C9.33212 15.6712 9.34503 15.6736 9.35472 15.6674L11.4875 14.4213C11.4945 14.417 11.501 14.4127 11.5073 14.408C11.632 14.3165 11.6595 14.1403 11.5688 14.0146C11.478 13.8888 11.3034 13.861 11.1788 13.9526C11.1747 13.9556 11.1707 13.9586 11.167 13.9617ZM10.8319 13.3268L8.75684 14.6865C8.74746 14.6925 8.74396 14.7049 8.74915 14.7152C8.75448 14.7257 8.7669 14.7301 8.77744 14.7255L11.0771 13.8314C11.0848 13.8282 11.0918 13.8249 11.0988 13.8213C11.2361 13.7506 11.2906 13.581 11.2205 13.4424C11.1504 13.3039 10.9822 13.2489 10.8449 13.3197C10.8404 13.3219 10.836 13.3244 10.8319 13.3268ZM10.5999 12.6464L8.33851 13.6596C8.32834 13.664 8.32293 13.6758 8.32648 13.6867C8.33008 13.6979 8.34165 13.7042 8.35279 13.7014L10.7633 13.1836C10.7713 13.1817 10.7789 13.1796 10.7863 13.1771C10.933 13.1291 11.0132 12.9702 10.9656 12.8223C10.918 12.6743 10.7605 12.5934 10.6139 12.6414C10.6091 12.643 10.6044 12.6446 10.5999 12.6464ZM10.4771 11.9376L8.08574 12.579C8.07499 12.5818 8.06784 12.5925 8.06962 12.6039C8.07143 12.6155 8.08189 12.6236 8.09333 12.6225L10.5546 12.494C10.5628 12.4934 10.5706 12.4925 10.5783 12.4913C10.7306 12.4672 10.8347 12.323 10.8108 12.1694C10.7869 12.0157 10.644 11.9107 10.4916 11.9348C10.4866 11.9357 10.4817 11.9366 10.4771 11.9376ZM10.4652 11.2188L8.00415 11.4779C7.99307 11.479 7.98438 11.4885 7.98438 11.5C7.98438 11.5118 7.99346 11.5214 8.00492 11.5222L10.4561 11.7806C10.4643 11.7813 10.4722 11.7816 10.48 11.7816C10.6342 11.7816 10.7592 11.6555 10.7592 11.5C10.7592 11.3445 10.6342 11.2183 10.48 11.2183C10.475 11.2183 10.4699 11.2185 10.4652 11.2188ZM10.5636 10.5067L8.09254 10.3775C8.08147 10.3768 8.0714 10.3848 8.06962 10.3962C8.06782 10.4077 8.07531 10.4187 8.08651 10.4212L10.4682 11.0604C10.4762 11.0624 10.4839 11.064 10.4916 11.0652C10.644 11.0893 10.7869 10.9843 10.8108 10.8307C10.8347 10.677 10.7306 10.5329 10.5783 10.5087C10.5733 10.5079 10.5684 10.5073 10.5636 10.5067ZM10.7721 9.81864L8.35201 9.2985C8.34116 9.296 8.33 9.30232 8.32648 9.31332C8.32287 9.32454 8.32858 9.33648 8.33923 9.34075L10.5915 10.3502C10.5991 10.3534 10.6064 10.3562 10.6139 10.3586C10.7605 10.4067 10.918 10.3257 10.9656 10.1778C11.0132 10.0298 10.933 9.87094 10.7863 9.8229C10.7815 9.82134 10.7767 9.81992 10.7721 9.81864ZM11.0854 9.17224L8.7767 8.27423C8.76641 8.27009 8.75437 8.27457 8.74915 8.28483C8.74385 8.29532 8.74763 8.30801 8.75749 8.31397L10.8241 9.66852C10.8311 9.67294 10.8379 9.67677 10.8449 9.68034C10.9822 9.75108 11.1504 9.69612 11.2205 9.55761C11.2906 9.41907 11.2361 9.24939 11.0988 9.17868C11.0943 9.17635 11.0898 9.17423 11.0854 9.17224ZM11.4951 8.58358L9.35407 7.33223C9.34452 7.32651 9.33196 7.32903 9.32523 7.33839C9.31835 7.34786 9.32009 7.36102 9.32894 7.36843L11.1601 9.03249C11.1663 9.03791 11.1724 9.04277 11.1788 9.04747C11.3034 9.13901 11.478 9.11123 11.5688 8.98548C11.6595 8.8597 11.632 8.68355 11.5073 8.59204C11.5032 8.58904 11.4991 8.58621 11.4951 8.58358ZM11.9905 8.06655L10.0686 6.49437C10.06 6.48725 10.0472 6.48773 10.0392 6.4959C10.0309 6.50422 10.0306 6.51745 10.0382 6.52619L11.5902 8.45742C11.5956 8.46378 11.6008 8.46956 11.6064 8.47512C11.7154 8.58516 11.8922 8.58516 12.0012 8.47512C12.1102 8.36519 12.1102 8.18684 12.0012 8.07686C11.9977 8.07325 11.994 8.0698 11.9905 8.06655ZM12.5595 7.63361L10.9036 5.7788C10.8963 5.77043 10.8836 5.76889 10.8743 5.7757C10.8649 5.78261 10.8625 5.79567 10.8687 5.80548L12.1039 7.95687C12.1081 7.96398 12.1125 7.97051 12.1171 7.97693C12.2078 8.10269 12.3824 8.13045 12.5071 8.03893C12.6318 7.94741 12.6593 7.77123 12.5685 7.64549C12.5656 7.64134 12.5625 7.63736 12.5595 7.63361ZM13.1889 7.29557L11.841 5.2023C11.8351 5.19284 11.8227 5.18933 11.8126 5.19453C11.8022 5.19995 11.7978 5.21247 11.8024 5.22311L12.6887 7.54295C12.6918 7.55061 12.6951 7.55781 12.6987 7.56483C12.7687 7.70338 12.9369 7.75838 13.0742 7.6876C13.2116 7.61687 13.2661 7.44725 13.1959 7.30874C13.1937 7.30418 13.1913 7.29977 13.1889 7.29557ZM13.8634 7.06156L12.859 4.78032C12.8546 4.77002 12.8429 4.76459 12.8321 4.76816C12.821 4.7718 12.8148 4.78349 12.8176 4.79471L13.3308 7.22639C13.3327 7.23448 13.3348 7.24208 13.3373 7.24959C13.3849 7.39754 13.5424 7.47853 13.689 7.43049C13.8357 7.38243 13.9159 7.22356 13.8683 7.07565C13.8667 7.07079 13.8651 7.06604 13.8634 7.06156ZM14.566 6.93761L13.9302 4.52531C13.9274 4.5145 13.9168 4.50728 13.9055 4.50911C13.894 4.5109 13.886 4.52143 13.887 4.53302L14.0144 7.01583C14.015 7.02414 14.0159 7.03195 14.0171 7.03974C14.041 7.19343 14.1839 7.2984 14.3362 7.27428C14.4886 7.25013 14.5926 7.106 14.5687 6.95231C14.5679 6.94731 14.567 6.94234 14.566 6.93761ZM15.2786 6.92564L15.0217 4.44299C15.0206 4.43186 15.0112 4.4231 14.9998 4.4231C14.9881 4.4231 14.9786 4.43221 14.9778 4.44381L14.7216 6.91654C14.7209 6.92483 14.7206 6.93268 14.7206 6.94059C14.7206 7.09614 14.8456 7.22223 14.9998 7.22223C15.154 7.22223 15.2789 7.09614 15.2789 6.94059C15.2789 6.93549 15.2788 6.93045 15.2786 6.92564ZM14.9998 7.22422C17.3407 7.22422 19.2384 9.13857 19.2384 11.5C19.2384 13.8614 17.3407 15.7758 14.9998 15.7758C12.6589 15.7758 10.7612 13.8614 10.7612 11.5C10.7612 9.13857 12.6589 7.22422 14.9998 7.22422ZM14.9998 7.73678C17.0601 7.73678 18.7303 9.42164 18.7303 11.5C18.7303 13.5784 17.0601 15.2633 14.9998 15.2633C12.9395 15.2633 11.2693 13.5784 11.2693 11.5C11.2693 9.42164 12.9395 7.73678 14.9998 7.73678ZM11.8849 12.6295C12.2663 11.8248 12.7934 11.1137 13.4029 10.5155C13.4982 10.5786 13.5926 10.6441 13.6859 10.7119C13.0458 11.3291 12.488 12.0929 12.0672 13.0287C11.9981 12.9005 11.9372 12.7671 11.8849 12.6295ZM15.2629 10.6871C15.3495 10.7603 15.4347 10.8359 15.5186 10.9138C15.6082 10.8398 15.6989 10.7682 15.7908 10.6991C15.707 10.6226 15.6219 10.5483 15.5356 10.476C15.4436 10.5441 15.3527 10.6145 15.2629 10.6871ZM14.7209 10.2698C14.8149 10.3357 14.9079 10.4039 14.9998 10.4747C15.0916 10.4039 15.1846 10.3357 15.2787 10.2698C15.1872 10.1993 15.0942 10.1309 14.9998 10.0645C14.9058 10.1306 14.8128 10.199 14.7209 10.2698ZM14.7459 11.1439C14.8319 11.2223 14.9166 11.3031 14.9998 11.3865C15.0829 11.3031 15.1676 11.2223 15.2537 11.1439C15.1705 11.0637 15.0858 10.9855 14.9998 10.9096C14.9138 10.9855 14.8291 11.0637 14.7459 11.1439ZM14.2088 10.6991C14.3007 10.7682 14.3914 10.8398 14.4809 10.9138C14.5649 10.8359 14.6502 10.7603 14.7367 10.6871C14.6469 10.6145 14.556 10.5441 14.464 10.476C14.3777 10.5483 14.2925 10.6226 14.2088 10.6991ZM15.8776 9.88982C15.7852 9.8187 15.6917 9.74987 15.5972 9.68347C15.4897 9.74538 15.3829 9.81033 15.2772 9.87822C15.3737 9.94278 15.4693 10.0099 15.5638 10.0794C15.6674 10.0135 15.772 9.9503 15.8776 9.88982ZM16.3714 10.3028C16.2884 10.2276 16.2042 10.1542 16.1188 10.0831C16.018 10.1446 15.9178 10.2089 15.8187 10.2758C15.9061 10.3461 15.9923 10.4187 16.0772 10.4938C16.1742 10.4276 16.2724 10.3641 16.3714 10.3028ZM14.6637 9.50747C14.7747 9.43584 14.8868 9.36737 14.9998 9.3023C15.1127 9.36737 15.2249 9.43584 15.3359 9.50747C15.2229 9.56904 15.1108 9.63361 14.9998 9.70122C14.8888 9.63361 14.7766 9.56904 14.6637 9.50747ZM14.122 9.88982C14.2144 9.8187 14.3079 9.74987 14.4023 9.68347C14.5099 9.74538 14.6166 9.81033 14.7224 9.87822C14.6258 9.94278 14.5302 10.0099 14.4358 10.0794C14.3322 10.0135 14.2276 9.9503 14.122 9.88982ZM13.6282 10.3028C13.7111 10.2276 13.7953 10.1542 13.8807 10.0831C13.9816 10.1446 14.0817 10.2089 14.1808 10.2758C14.0935 10.3461 14.0073 10.4187 13.9223 10.4938C13.8253 10.4276 13.7272 10.3641 13.6282 10.3028ZM12.0719 9.81108C12.4169 9.95055 12.761 10.1218 13.0969 10.3227C12.5798 10.8199 12.1161 11.4125 11.7345 12.114C11.6885 11.8913 11.6642 11.6606 11.6642 11.4242C11.6642 10.8396 11.812 10.29 12.0719 9.81108ZM12.3554 9.37337C12.7621 9.50597 13.1714 9.68411 13.5719 9.90404C13.4857 9.97372 13.4006 10.0457 13.3167 10.12C12.951 9.91624 12.5753 9.74403 12.1964 9.60034C12.2463 9.52235 12.2994 9.44667 12.3554 9.37337ZM12.711 8.97659C13.1708 9.09821 13.6382 9.27994 14.0962 9.51644C13.9996 9.58167 13.904 9.64928 13.8096 9.7195C13.3859 9.5006 12.9507 9.32246 12.5144 9.18027C12.5771 9.10967 12.6427 9.04169 12.711 8.97659ZM13.2298 8.57185C13.2396 8.57546 13.2498 8.57913 13.2607 8.58283C13.273 8.58596 13.2852 8.58917 13.2974 8.59229C13.7656 8.71524 14.2418 8.90059 14.7082 9.14268C14.5897 9.20788 14.4723 9.27643 14.3562 9.3483C13.9049 9.12662 13.4423 8.94976 12.9804 8.81241C12.9765 8.81128 12.9507 8.80229 12.9217 8.79212C13.0201 8.7131 13.1229 8.63947 13.2298 8.57185ZM16.4855 8.41092C16.4675 8.4167 16.4544 8.42105 16.4505 8.42261C15.9633 8.56581 15.475 8.75268 14.9998 8.98986C14.5336 8.7572 14.0548 8.57289 13.5768 8.43077C13.5676 8.42803 13.5583 8.42533 13.5491 8.42261C13.536 8.4192 13.5241 8.41544 13.5131 8.41144C13.9608 8.18617 14.4655 8.05925 14.9998 8.05925C15.5336 8.05925 16.0381 8.1859 16.4855 8.41092ZM17.081 8.79471C17.0686 8.79845 17.0571 8.80175 17.0474 8.8041C16.5761 8.94253 16.1039 9.12206 15.6434 9.3483C15.5272 9.27643 15.4098 9.20788 15.2914 9.14268C15.7699 8.89426 16.2588 8.70558 16.7388 8.58283C16.7506 8.58092 16.7625 8.57807 16.7741 8.57456C16.8806 8.64224 16.9831 8.71569 17.081 8.79471ZM17.4852 9.18027C17.0489 9.32246 16.6137 9.5006 16.1899 9.7195C16.0955 9.64928 15.9999 9.58167 15.9033 9.51644C16.3614 9.27994 16.8287 9.09821 17.2885 8.97659C17.3569 9.04169 17.4225 9.10967 17.4852 9.18027ZM17.8032 9.60034C17.4242 9.74403 17.0485 9.91622 16.6829 10.12C16.599 10.0457 16.5139 9.97372 16.4277 9.90404C16.8281 9.68411 17.2375 9.50597 17.6442 9.37337C17.7002 9.44667 17.7533 9.52235 17.8032 9.60034ZM18.265 12.114C17.8836 11.4125 17.4198 10.8199 16.9026 10.3227C17.2385 10.1218 17.5826 9.95055 17.9277 9.81108C18.1875 10.29 18.3354 10.8396 18.3354 11.4242C18.3354 11.6606 18.3111 11.8913 18.265 12.114ZM17.9324 13.0287C17.5115 12.0929 16.9537 11.3291 16.3136 10.7119C16.407 10.6441 16.5014 10.5786 16.5966 10.5155C17.2062 11.1137 17.7333 11.8247 18.1147 12.6295C18.0624 12.7671 18.0015 12.9005 17.9324 13.0287ZM17.4128 13.7472C17.0065 12.6907 16.4339 11.8356 15.7623 11.1509C15.8505 11.0741 15.94 10.9996 16.0306 10.9273C16.7257 11.6169 17.3112 12.4544 17.6919 13.4107C17.6061 13.5289 17.513 13.6414 17.4128 13.7472ZM16.7832 14.268L16.7388 14.1478C16.3704 13.1441 15.8538 12.3183 15.2446 11.6444C15.3276 11.5577 15.4125 11.4732 15.4988 11.3909C16.1964 12.1254 16.7697 13.0146 17.1145 14.0264C17.0092 14.1135 16.8986 14.1942 16.7832 14.268ZM13.5559 14.4582L13.5985 14.3238C13.9058 13.4132 14.3981 12.6017 14.9998 11.9121C15.6015 12.6017 16.0937 13.4132 16.401 14.3238L16.4447 14.4578C16.0076 14.6701 15.5175 14.789 14.9998 14.789C14.4825 14.789 13.9927 14.6702 13.5559 14.4582ZM12.8851 14.0263C13.2299 13.0146 13.8031 12.1254 14.5007 11.3909C14.5871 11.4732 14.6719 11.5577 14.755 11.6444C14.1457 12.3183 13.6291 13.1441 13.2607 14.1478L13.2165 14.2681C13.1011 14.1943 12.9904 14.1135 12.8851 14.0263ZM12.3076 13.4107C12.6884 12.4544 13.2738 11.6169 13.969 10.9273C14.0596 10.9996 14.1491 11.0741 14.2373 11.1509C13.5656 11.8356 12.9931 12.6907 12.5867 13.7472C12.4866 13.6414 12.3935 13.5289 12.3076 13.4107Z" fill="#FFFF00"/>
</g>
</g>
<defs>
<clipPath id="clip0_175_25">
<rect width="30" height="23" rx="4" fill="white"/>
</clipPath>
<clipPath id="clip1_175_25">
<rect width="38" height="23" fill="white" transform="translate(-4)"/>
</clipPath>
</defs>
</svg>
