<svg width="30" height="23" viewBox="0 0 30 23" fill="none" xmlns="http://www.w3.org/2000/svg">
<g clip-path="url(#clip0_175_35)">
<mask id="mask0_175_35" style="mask-type:alpha" maskUnits="userSpaceOnUse" x="0" y="0" width="30" height="23">
<rect width="30" height="23" fill="#D9D9D9"/>
</mask>
<g mask="url(#mask0_175_35)">
</g>
<g clip-path="url(#clip1_175_35)">
<path d="M-8 0H38V23H-8V0Z" fill="#00ABC2"/>
<path d="M15.0361 12.7546C16.7452 12.7546 18.1307 11.3691 18.1307 9.66C18.1307 7.95087 16.7452 6.56535 15.0361 6.56535C13.3269 6.56535 11.9414 7.95087 11.9414 9.66C11.9414 11.3691 13.3269 12.7546 15.0361 12.7546Z" fill="#FFEC2D"/>
<path d="M15.0362 6.1433C15.2202 6.141 15.2892 6.026 15.2892 5.888C15.2892 5.704 15.0362 4.8277 15.0362 4.8277C15.0362 4.8277 14.7832 5.704 14.7832 5.888C14.7832 6.026 14.8522 6.1433 15.0362 6.1433Z" fill="#FFEC2D"/>
<path d="M18.5535 9.66C18.5558 9.844 18.6708 9.913 18.8088 9.913C18.9928 9.913 19.8691 9.66 19.8691 9.66C19.8691 9.66 18.9928 9.407 18.8088 9.407C18.6708 9.407 18.5535 9.476 18.5535 9.66Z" fill="#FFEC2D"/>
<path d="M15.0361 13.1767C14.8521 13.179 14.7831 13.294 14.7831 13.432C14.7831 13.616 15.0361 14.4923 15.0361 14.4923C15.0361 14.4923 15.2891 13.616 15.2891 13.432C15.2891 13.294 15.2201 13.1767 15.0361 13.1767Z" fill="#FFEC2D"/>
<path d="M11.5197 9.66C11.5174 9.476 11.4024 9.407 11.2644 9.407C11.0804 9.407 10.2041 9.66 10.2041 9.66C10.2041 9.66 11.0804 9.913 11.2644 9.913C11.4024 9.913 11.5197 9.844 11.5197 9.66Z" fill="#FFEC2D"/>
<path d="M16.3817 6.41099C16.5525 6.47928 16.6603 6.39944 16.7131 6.27194C16.7835 6.10195 16.8851 5.19554 16.8851 5.19554C16.8851 5.19554 16.316 5.90831 16.2456 6.07831C16.1928 6.2058 16.2117 6.34058 16.3817 6.41099Z" fill="#FFEC2D"/>
<path d="M18.2854 11.0058C18.2171 11.1767 18.2969 11.2844 18.4244 11.3372C18.5944 11.4076 19.5008 11.5092 19.5008 11.5092C19.5008 11.5092 18.7881 10.9402 18.6181 10.8697C18.4906 10.8169 18.3558 10.8358 18.2854 11.0058Z" fill="#FFEC2D"/>
<path d="M13.6906 12.909C13.5197 12.8407 13.412 12.9206 13.3592 13.0481C13.2888 13.218 13.1872 14.1245 13.1872 14.1245C13.1872 14.1245 13.7562 13.4117 13.8267 13.2417C13.8795 13.1142 13.8606 12.9794 13.6906 12.909Z" fill="#FFEC2D"/>
<path d="M11.7869 8.31422C11.8552 8.14334 11.7753 8.03558 11.6478 7.98277C11.4778 7.91236 10.5714 7.81076 10.5714 7.81076C10.5714 7.81076 11.2842 8.37984 11.4542 8.45026C11.5817 8.50307 11.7165 8.48421 11.7869 8.31422Z" fill="#FFEC2D"/>
<path d="M17.523 7.17332C17.6548 7.3018 17.7849 7.26927 17.8825 7.17169C18.0126 7.04158 18.4533 6.24305 18.4533 6.24305C18.4533 6.24305 17.6548 6.68379 17.5247 6.81389C17.4271 6.91147 17.3929 7.04321 17.523 7.17332Z" fill="#FFEC2D"/>
<path d="M17.5227 12.1467C17.3942 12.2784 17.4267 12.4085 17.5243 12.5061C17.6544 12.6362 18.4529 13.077 18.4529 13.077C18.4529 13.077 18.0122 12.2784 17.8821 12.1483C17.7845 12.0507 17.6528 12.0166 17.5227 12.1467Z" fill="#FFEC2D"/>
<path d="M12.5492 12.1467C12.4175 12.0182 12.2874 12.0507 12.1898 12.1483C12.0597 12.2784 11.619 13.077 11.619 13.077C11.619 13.077 12.4175 12.6362 12.5476 12.5061C12.6452 12.4085 12.6793 12.2768 12.5492 12.1467Z" fill="#FFEC2D"/>
<path d="M12.5496 7.17332C12.6781 7.04159 12.6456 6.91148 12.548 6.8139C12.4179 6.68379 11.6193 6.24305 11.6193 6.24305C11.6193 6.24305 12.0601 7.04159 12.1902 7.17169C12.2878 7.26927 12.4195 7.30343 12.5496 7.17332Z" fill="#FFEC2D"/>
<path d="M18.2847 8.31421C18.3572 8.48333 18.4899 8.50307 18.6174 8.45026C18.7874 8.37984 19.5001 7.81076 19.5001 7.81076C19.5001 7.81076 18.5937 7.91236 18.4237 7.98277C18.2962 8.03558 18.2143 8.14422 18.2847 8.31421Z" fill="#FFEC2D"/>
<path d="M16.3819 12.909C16.2128 12.9815 16.1931 13.1142 16.2459 13.2417C16.3163 13.4117 16.8854 14.1245 16.8854 14.1245C16.8854 14.1245 16.7838 13.218 16.7134 13.0481C16.6606 12.9206 16.5519 12.8386 16.3819 12.909Z" fill="#FFEC2D"/>
<path d="M11.7876 11.0058C11.715 10.8367 11.5824 10.8169 11.4549 10.8697C11.2849 10.9402 10.5721 11.5092 10.5721 11.5092C10.5721 11.5092 11.4785 11.4076 11.6485 11.3372C11.776 11.2844 11.858 11.1758 11.7876 11.0058Z" fill="#FFEC2D"/>
<path d="M13.6903 6.41099C13.8594 6.33845 13.8792 6.2058 13.8264 6.07831C13.756 5.90831 13.1869 5.19554 13.1869 5.19554C13.1869 5.19554 13.2885 6.10195 13.3589 6.27194C13.4117 6.39944 13.5203 6.48141 13.6903 6.41099Z" fill="#FFEC2D"/>
<path d="M15.721 6.21087C15.9019 6.24451 15.992 6.14518 16.0189 6.00984C16.0548 5.82937 15.9776 4.92055 15.9776 4.92055C15.9776 4.92055 15.5585 5.73066 15.5226 5.91112C15.4957 6.04647 15.5405 6.17498 15.721 6.21087Z" fill="#FFEC2D"/>
<path d="M18.4845 10.3461C18.4509 10.527 18.5502 10.6171 18.6856 10.644C18.866 10.6799 19.7749 10.6027 19.7749 10.6027C19.7749 10.6027 18.9648 10.1836 18.7843 10.1477C18.6489 10.1208 18.5204 10.1656 18.4845 10.3461Z" fill="#FFEC2D"/>
<path d="M14.3493 13.1091C14.1684 13.0755 14.0783 13.1748 14.0514 13.3102C14.0155 13.4906 14.0927 14.3994 14.0927 14.3994C14.0927 14.3994 14.5118 13.5893 14.5477 13.4089C14.5746 13.2735 14.5298 13.145 14.3493 13.1091Z" fill="#FFEC2D"/>
<path d="M11.5858 8.97393C11.6194 8.79301 11.5201 8.7029 11.3847 8.67598C11.2043 8.64008 10.2955 8.71727 10.2955 8.71727C10.2955 8.71727 11.1056 9.13636 11.286 9.17226C11.4214 9.19918 11.5499 9.15439 11.5858 8.97393Z" fill="#FFEC2D"/>
<path d="M16.9892 6.73597C17.1435 6.83628 17.2647 6.779 17.3414 6.66426C17.4436 6.51127 17.7201 5.64209 17.7201 5.64209C17.7201 5.64209 17.0229 6.23015 16.9207 6.38314C16.844 6.49788 16.8362 6.63375 16.9892 6.73597Z" fill="#FFEC2D"/>
<path d="M17.9589 11.6138C17.8586 11.768 17.9159 11.8893 18.0306 11.966C18.1836 12.0682 19.0528 12.3447 19.0528 12.3447C19.0528 12.3447 18.4647 11.6475 18.3118 11.5452C18.197 11.4686 18.0611 11.4608 17.9589 11.6138Z" fill="#FFEC2D"/>
<path d="M13.0821 12.584C12.9278 12.4837 12.8065 12.541 12.7299 12.6557C12.6276 12.8087 12.3512 13.6779 12.3512 13.6779C12.3512 13.6779 13.0484 13.0899 13.1506 12.9369C13.2273 12.8221 13.2351 12.6863 13.0821 12.584Z" fill="#FFEC2D"/>
<path d="M12.1114 7.70623C12.2117 7.55196 12.1544 7.4307 12.0397 7.35403C11.8867 7.2518 11.0175 6.97532 11.0175 6.97532C11.0175 6.97532 11.6056 7.67253 11.7586 7.77475C11.8733 7.85142 12.0092 7.85922 12.1114 7.70623Z" fill="#FFEC2D"/>
<path d="M17.9588 7.70623C18.0629 7.85794 18.1969 7.85142 18.3116 7.77475C18.4646 7.67253 19.0527 6.97532 19.0527 6.97532C19.0527 6.97532 18.1835 7.2518 18.0305 7.35403C17.9158 7.4307 17.8566 7.55324 17.9588 7.70623Z" fill="#FFEC2D"/>
<path d="M16.9884 12.584C16.8367 12.6882 16.8432 12.8221 16.9199 12.9369C17.0221 13.0899 17.7193 13.6779 17.7193 13.6779C17.7193 13.6779 17.4428 12.8087 17.3406 12.6557C17.2639 12.541 17.1414 12.4818 16.9884 12.584Z" fill="#FFEC2D"/>
<path d="M12.1105 11.6138C12.0064 11.4621 11.8725 11.4686 11.7577 11.5453C11.6047 11.6475 11.0167 12.3447 11.0167 12.3447C11.0167 12.3447 11.8858 12.0682 12.0388 11.966C12.1536 11.8893 12.2128 11.7668 12.1105 11.6138Z" fill="#FFEC2D"/>
<path d="M13.0809 6.73597C13.2326 6.63183 13.2261 6.49788 13.1494 6.38314C13.0472 6.23015 12.35 5.64209 12.35 5.64209C12.35 5.64209 12.6265 6.51127 12.7287 6.66426C12.8054 6.779 12.9279 6.8382 13.0809 6.73597Z" fill="#FFEC2D"/>
<path d="M18.4846 8.97393C18.5228 9.15394 18.649 9.19918 18.7844 9.17226C18.9648 9.13636 19.7749 8.71727 19.7749 8.71727C19.7749 8.71727 18.8661 8.64009 18.6857 8.67598C18.5503 8.7029 18.4487 8.79346 18.4846 8.97393Z" fill="#FFEC2D"/>
<path d="M15.7218 13.1091C15.5417 13.1473 15.4965 13.2735 15.5234 13.4089C15.5593 13.5893 15.9784 14.3995 15.9784 14.3995C15.9784 14.3995 16.0556 13.4906 16.0197 13.3102C15.9928 13.1748 15.9022 13.0732 15.7218 13.1091Z" fill="#FFEC2D"/>
<path d="M11.5867 10.3461C11.5485 10.1661 11.4223 10.1208 11.2869 10.1477C11.1064 10.1836 10.2963 10.6027 10.2963 10.6027C10.2963 10.6027 11.2052 10.6799 11.3856 10.644C11.521 10.6171 11.6226 10.5265 11.5867 10.3461Z" fill="#FFEC2D"/>
<path d="M14.3495 6.21087C14.5295 6.17272 14.5748 6.04647 14.5479 5.91112C14.512 5.73066 14.0929 4.92055 14.0929 4.92055C14.0929 4.92055 14.0157 5.82937 14.0516 6.00984C14.0785 6.14518 14.1691 6.24677 14.3495 6.21087Z" fill="#FFEC2D"/>
<path d="M14.484 16.3637C14.4012 16.3683 14.3207 16.3791 14.2418 16.4044C14.1337 16.4189 14.0302 16.4565 13.9228 16.4741L13.8799 16.481L13.8078 16.4879C13.8124 16.5079 13.8155 16.5278 13.8155 16.5477C13.8155 16.5684 13.8132 16.5884 13.8078 16.6052C13.8032 16.6213 13.7887 16.6413 13.7772 16.6535C13.7618 16.6704 13.7457 16.685 13.7266 16.6942C13.7082 16.7034 13.6875 16.7072 13.6668 16.7087C13.6461 16.7095 13.6246 16.7087 13.6047 16.7011C13.584 16.6942 13.5648 16.6811 13.5472 16.6658C13.526 16.671 13.5045 16.6749 13.4828 16.6773C13.4613 16.6796 13.4414 16.6796 13.4222 16.6773C13.4007 16.6712 13.3785 16.6643 13.3578 16.6558C13.3369 16.6472 13.3169 16.6367 13.298 16.6244C13.2198 16.6704 13.1324 16.7141 13.0849 16.7946C13.058 16.8314 13.0527 16.8736 13.0465 16.9173C13.0427 16.9709 13.0565 17.0277 13.0795 17.0775C13.0879 17.0921 13.0948 17.0246 13.1209 17.0154C13.1646 16.9794 13.219 16.9533 13.2742 16.9387C13.321 16.915 13.3149 16.9403 13.2957 16.9771C13.2911 16.9962 13.265 17.0691 13.3003 17.0323C13.4559 16.9633 13.6284 16.9495 13.7963 16.9364C14.0401 16.9111 14.2847 16.9058 14.5293 16.9027L15.2193 16.9173C15.3289 16.9203 15.4393 16.9449 15.5474 16.9265C15.5735 16.9196 15.6141 16.918 15.6294 16.9027C15.5804 16.8743 15.5229 16.8736 15.4684 16.8667H15.0299C14.908 16.8544 14.7807 16.8529 14.6657 16.8069C14.6351 16.7946 14.6067 16.7655 14.5776 16.7969C14.5339 16.8122 14.4871 16.823 14.4411 16.826C14.3606 16.8322 14.2801 16.8153 14.2057 16.7854C14.2594 16.711 14.3238 16.6459 14.3828 16.5769C14.3353 16.5692 14.2893 16.5592 14.2418 16.5477C14.3253 16.4902 14.4028 16.4251 14.484 16.3637Z" fill="#FFEC2D"/>
<path d="M18.0662 17.1582C17.8996 17.2583 17.7724 17.0809 17.6331 17.0277C17.5336 17.0817 17.5243 17.2625 17.4314 17.3481C17.3202 17.4746 17.1839 17.3127 17.194 17.1879C17.061 17.3 16.9938 17.5541 16.7787 17.5202C16.6768 17.437 16.6011 17.2625 16.5233 17.4612C16.4598 17.5583 16.2907 17.6965 16.2032 17.5498C16.1761 17.4203 16.1112 17.2681 16.0408 17.4737C15.9924 17.6192 15.8372 17.7262 15.687 17.6626C15.6048 17.5953 15.7529 17.3468 15.6483 17.3645C15.4919 17.4679 15.401 17.7247 15.1827 17.7041C15.098 17.609 15.2342 17.4478 15.1412 17.3422C15.0315 17.483 14.9098 17.6892 14.72 17.7041C14.6282 17.6298 14.7236 17.4166 14.665 17.385C14.4703 17.5018 14.2648 17.71 14.0198 17.6448C14.1153 17.2797 14.5141 17.1516 14.8495 17.1231C15.4266 17.0522 16.0337 17.1826 16.5889 16.9743C16.6786 16.9197 16.8959 16.8423 16.8185 16.7157C16.75 16.6158 16.9968 16.6549 17.0206 16.5381C17.0059 16.3902 17.1339 16.4105 17.259 16.3976C17.8196 16.3734 18.3734 16.4915 18.9324 16.5115C18.9746 16.7839 18.6725 16.9752 18.4292 16.891C18.313 16.9099 18.1388 16.6239 18.173 16.8319C18.1496 16.9411 18.166 17.0853 18.0662 17.1583M13.296 16.6006C13.4258 16.7194 13.5168 16.5782 13.6381 16.5266C14.045 16.3866 14.4001 16.1421 14.7501 15.8977C14.9621 15.7222 15.146 15.4946 15.4308 15.4377C15.9864 15.2697 16.5769 15.2901 17.1346 15.1351C17.5593 14.5536 18.2806 14.3462 18.8849 14.012C19.0206 13.9698 19.073 13.8582 19.1163 13.7349C19.3469 13.3708 19.6611 13.0482 20.0327 12.8278C20.2085 12.7317 20.4183 12.6764 20.6173 12.7203C20.6031 12.9574 20.4671 13.1675 20.3029 13.3314C20.4373 13.3285 20.5527 13.2436 20.6885 13.2484C20.7351 13.4917 20.4723 13.619 20.3325 13.7705C20.4104 13.7886 20.7087 13.8112 20.5461 13.8891C20.339 14.0329 20.1025 14.1316 19.9113 14.2985C20.0877 14.3302 20.1078 14.3677 19.9284 14.4315C19.8313 14.4973 19.6446 14.5203 19.6265 14.6486C19.7598 14.7305 19.5651 14.8118 19.49 14.8384C19.3465 14.8719 19.1957 14.9342 19.3864 15.0433C19.3143 15.1523 19.1595 15.1755 19.0332 15.1647C19.0715 15.2882 19.127 15.4264 18.9667 15.4809C18.6073 15.7526 18.1856 15.9502 17.7339 15.9954C18.2982 16.0388 18.8794 15.934 19.3616 15.6271C19.4253 15.5518 19.7591 15.471 19.5724 15.4077C19.4845 15.3711 19.296 15.3304 19.2833 15.2634C19.5445 15.1023 19.8736 15.1596 20.1545 15.0639C20.1618 14.9729 19.9408 14.9982 19.8584 14.9775C19.662 14.9614 19.6735 14.9113 19.8629 14.8927C20.1026 14.8292 20.3741 14.8167 20.5758 14.6604C20.4116 14.5844 20.2051 14.6513 20.0299 14.5892C20.3269 14.4593 20.6772 14.4462 20.9436 14.251C21.065 14.116 20.7881 14.1582 20.7075 14.1615C20.543 14.1901 20.467 14.1114 20.6538 14.0431C20.9729 13.8078 21.3768 13.6551 21.6009 13.314C21.654 13.2377 21.7259 13.0077 21.5566 13.0904C21.3339 13.1645 21.138 13.4147 20.8843 13.3373C21.3842 12.9499 21.8598 12.5089 22.2015 11.9727C22.2191 11.8181 21.9764 11.8014 21.9132 11.9228C21.5921 12.2322 21.3014 12.5975 20.8902 12.7915C21.284 12.4114 21.6096 11.9614 21.8936 11.4949C21.9545 11.3562 22.1182 11.1894 22.0294 11.0353C21.8862 10.9168 21.7071 11.0253 21.6327 11.1671C21.383 11.493 21.1935 11.8734 20.8724 12.1389C21.1535 11.6025 21.4445 11.0315 21.4516 10.4128C21.4507 10.2854 21.4251 10.0979 21.2522 10.1216C21.115 10.1462 21.1476 10.3514 21.0911 10.4552C20.9666 10.8779 20.9082 11.3357 20.6529 11.7058C20.7104 11.3623 20.8108 11.0043 20.7337 10.6574C20.6977 10.5024 20.4474 10.5691 20.4796 10.7225C20.1806 12.2373 19.1641 13.5621 17.8348 14.3284C17.2262 14.6728 16.5463 14.8948 15.8546 14.9955C15.6686 15.0362 15.4673 15.0123 15.2895 15.0758C14.8585 15.4062 14.5976 15.9591 14.052 16.1323C13.8075 16.2538 13.4886 16.2785 13.3138 16.5056C13.2986 16.5347 13.2954 16.5683 13.296 16.6006Z" fill="#FFEC2D"/>
<path d="M14.9288 15.0639C14.8483 15.21 14.8009 15.378 14.6974 15.5088C14.386 15.2254 13.9345 15.2348 13.5394 15.2159C13.2134 15.1985 12.8588 15.1685 12.6065 14.9359C12.3411 14.7185 12.1245 14.4362 11.8279 14.2599C11.5572 14.1863 11.2843 14.0942 11.0667 13.9086C10.6016 13.5295 10.3353 12.9671 9.88087 12.5762C9.79423 12.4909 9.69206 12.4248 9.595 12.3524C9.50277 12.3749 9.54452 12.574 9.43166 12.4725C9.37025 12.4288 9.21665 12.4246 9.20281 12.4856C9.34175 12.6687 9.48083 12.8777 9.50008 13.1119C9.40532 13.1216 9.23685 13.0919 9.18988 13.1272C9.31571 13.3158 9.47701 13.483 9.66028 13.6162C9.57237 13.6303 9.39916 13.6226 9.36546 13.6581C9.54737 13.8063 9.74243 13.9578 9.98065 13.9959C10.0294 14.0602 9.90934 14.1843 10.0103 14.2392C10.0688 14.2631 10.262 14.3031 10.129 14.3697C10.0377 14.4312 10.0715 14.5746 10.1883 14.5714C10.2621 14.6091 10.4279 14.6184 10.4409 14.6837C10.3754 14.7502 10.1718 14.8292 10.3451 14.8916C10.507 14.9814 10.6917 15.0397 10.8765 15.0461C10.7838 15.1241 10.6694 15.1684 10.574 15.2419C11.0006 15.492 11.4736 15.6566 11.9409 15.815C12.127 15.8772 12.3152 15.9351 12.5081 15.9716C11.9476 15.9393 11.4059 15.7734 10.8954 15.5463C10.6309 15.4302 10.3645 15.3181 10.0934 15.2182C10.2123 15.1563 10.3498 15.1412 10.4731 15.0876C10.2171 15.0363 9.93752 15.0196 9.71253 14.8789C9.74703 14.8173 9.87774 14.8144 9.95003 14.7831C10.086 14.7505 10.1703 14.711 9.97862 14.6992C9.78531 14.6467 9.56359 14.6703 9.39322 14.5536C9.4042 14.4837 9.58249 14.5081 9.6551 14.4779C9.74655 14.4622 9.84821 14.449 9.92128 14.3875C9.62242 14.2636 9.23151 14.3514 8.99742 14.0875C8.94344 13.9869 9.16507 14.0679 9.22818 14.0512C9.38856 14.0512 9.56092 14.1021 9.71364 14.0375C9.27816 13.8463 8.81169 13.6673 8.47957 13.3136C8.4427 13.2568 8.33221 13.1015 8.42136 13.0823C8.67986 13.1165 8.86696 13.3986 9.14347 13.3547C9.1802 13.3052 8.98284 13.224 8.93357 13.1532C8.53043 12.8073 8.13915 12.4319 7.85659 11.9787C7.83716 11.8274 8.07503 11.8047 8.13765 11.9216C8.44597 12.2185 8.72448 12.5651 9.10848 12.7678C9.24474 12.8339 9.03024 12.6896 9.00167 12.6373C8.64685 12.2252 8.30907 11.7901 8.06109 11.3048C8.0167 11.2174 7.94314 11.059 8.07594 11.0125C8.20872 10.946 8.34047 11.0366 8.40779 11.1507C8.66866 11.4797 8.86061 11.8707 9.18558 12.1448C8.90873 11.6076 8.61313 11.042 8.60598 10.4238C8.61249 10.304 8.62019 10.1227 8.78271 10.1276C8.91917 10.1069 8.89762 10.2816 8.94233 10.3649C9.07679 10.8191 9.13542 11.3107 9.40514 11.7117C9.34557 11.3748 9.25787 11.0278 9.31613 10.6853C9.32956 10.5728 9.45618 10.5388 9.53881 10.6067C9.60563 10.7703 9.61954 10.9722 9.68043 11.147C10.0268 12.332 10.8046 13.3742 11.8181 14.0736C12.6528 14.6461 13.6434 14.9878 14.6544 15.0474C14.7457 15.0554 14.8374 15.0581 14.9289 15.0637" fill="#FFEC2D"/>
<path d="M13.6453 16.6348C13.6753 16.6348 13.6997 16.6105 13.6997 16.5804C13.6997 16.5503 13.6753 16.526 13.6453 16.526C13.6152 16.526 13.5908 16.5503 13.5908 16.5804C13.5908 16.6105 13.6152 16.6348 13.6453 16.6348Z" fill="#FFEC2D"/>
<path d="M13.6404 16.5939C13.6526 16.5939 13.6626 16.5839 13.6626 16.5717C13.6626 16.5594 13.6526 16.5495 13.6404 16.5495C13.6281 16.5495 13.6182 16.5594 13.6182 16.5717C13.6182 16.5839 13.6281 16.5939 13.6404 16.5939Z" fill="#FFEC2D" stroke="#FFEC2D" stroke-width="0.1905"/>
</g>
</g>
<defs>
<clipPath id="clip0_175_35">
<rect width="30" height="23" rx="4" fill="white"/>
</clipPath>
<clipPath id="clip1_175_35">
<rect width="46" height="23" fill="white" transform="translate(-8)"/>
</clipPath>
</defs>
</svg>
