<svg width="253" height="202" viewBox="0 0 253 202" fill="none" xmlns="http://www.w3.org/2000/svg">
<path d="M0.201307 84.9217C0.00118482 88.0689 -0.521356 108.059 1.66887 117.02C3.17534 123.488 4.82079 129.447 7.43906 135.624C10.0395 141.852 13.1463 147.853 16.7281 153.568C21.2211 160.776 26.5383 167.431 32.5711 173.396C38.6859 179.293 45.4456 184.811 52.8445 188.131C54.7902 189.277 56.8192 190.244 58.8427 191.2C59.8488 191.681 60.8772 192.178 61.9112 192.62L65.0186 193.883C70.371 196.026 75.8941 197.709 81.5287 198.914C82.9296 199.227 84.3749 199.473 85.7702 199.702C87.1655 199.932 88.6053 200.211 90.0228 200.34C92.869 200.602 95.7708 200.977 98.6503 201.044C100.118 201.078 101.613 201.122 103.097 201.134L107.595 200.921C110.6 200.764 113.595 200.449 116.567 199.976C119.207 199.602 121.909 198.987 124.572 198.439C127.229 197.707 129.903 197.07 132.532 196.203L136.457 194.822C137.769 194.353 139.069 193.861 140.348 193.313C142.866 192.234 145.351 191.077 147.78 189.758C148.803 189.199 149.848 188.64 150.838 188.125C155.883 185.576 160.544 182.32 164.679 178.455C165.791 177.404 167.07 176.325 168.243 175.229C169.199 174.346 170.138 173.424 171.067 172.496L173.785 169.561C181.44 161.405 187.971 150.365 192.563 140.336C192.808 139.827 193.08 139.274 193.291 138.737C193.503 138.201 193.725 137.513 193.953 136.904C194.831 134.438 195.259 133.22 196.121 130.811C196.732 128.787 197.316 126.791 197.827 124.807C200.186 115.984 201.244 106.86 200.968 97.7285C200.879 95.4422 200.774 93.0496 200.557 90.7912C200.34 88.5329 200.09 86.2465 199.945 84.0049C199.802 82.569 199.53 81.149 199.134 79.762C198.1 76.4471 197.16 73.0875 196.099 69.8061C195.543 68.0732 194.798 66.3347 194.109 64.6297C193.758 63.78 193.403 62.908 193.025 62.0583C192.535 61.0409 192.285 60.5434 191.774 59.5316C190.907 57.8546 190.073 56.1161 189.122 54.5005C188.668 53.7668 188.295 52.9851 188.01 52.1695C187.773 50.8939 187.316 49.6699 186.66 48.5527C185.858 47.1992 184.98 45.8928 184.03 44.6397C176.064 33.5993 165.752 24.2918 154.445 16.8458C146.179 11.3275 137.222 6.93635 127.807 3.78746C117.656 0.433418 104.459 -0.718136 93.9808 0.433418C83.5022 1.58497 71.039 5.20733 61.5109 10.2887C59.4541 11.3788 57.9143 12.2788 57.7753 13.0446C57.7364 13.2626 56.8748 13.8775 56.28 14.3359C55.6852 14.7943 54.7012 15.3924 54.3955 15.7446C53.6673 16.6278 52.3164 17.4216 51.0601 18.3663C49.0311 19.7247 47.1077 21.1614 45.2621 22.598C43.878 24.3589 44.0225 24.7726 44.2726 25.298C45.5179 25.3931 48.6031 21.944 49.1367 22.6819C49.6704 23.4198 47.0354 25.667 47.6858 26.103C49.0645 25.8179 54.1898 21.7372 54.6345 22.4136C55.0792 23.09 48.8643 28.803 49.637 29.0601C50.4097 29.3173 52.0385 27.8247 52.2553 28.0539C52.4721 28.2831 48.9644 31.408 49.537 31.8552C50.1095 32.3024 56.6969 26.4719 56.4245 27.9421C55.952 28.7527 50.7933 33.7334 51.1546 34.3316C51.3714 34.6782 52.3998 34.1974 53.5672 33.4539C55.6073 31.8384 57.7475 30.262 59.9767 28.7527C61.3219 27.9254 62.6394 27.0421 64.018 26.2763C65.824 25.1679 67.6994 24.1783 69.6326 23.3136C71.1168 22.7546 72.5566 22.067 74.0797 21.4912C75.6029 20.9154 77.0315 20.2782 78.5825 19.8142C80.1334 19.3502 81.5899 18.7632 83.1464 18.3775C84.7029 17.9918 86.2649 17.5222 87.8381 17.2595C91.0465 16.5951 94.3005 16.1765 97.5719 16.0073C100.798 15.7761 104.037 15.791 107.261 16.0521C108.851 16.1471 110.435 16.4154 112.014 16.6111L114.377 16.9465L116.672 17.4608C124.188 19.1768 131.41 22.0025 138.102 25.8459C143.886 29.0808 149.376 32.822 154.507 37.026C162.43 43.6426 169.195 51.5485 174.519 60.4148C179.356 68.5769 182.752 77.5186 184.558 86.8447C185.97 94.3801 185.904 102.195 185.331 110.194C184.814 113.493 184.264 116.863 183.585 120.256C183.269 121.632 182.868 123.001 182.474 124.343C182.09 125.589 181.645 126.534 181.173 126.299C181.623 124.622 182.051 122.945 182.485 121.307C182.891 119.798 183.157 118.266 183.474 116.768C184.08 113.479 184.511 110.159 184.764 106.824C184.936 103.591 184.936 100.352 184.764 97.1192C184.612 94.0156 184.272 90.9241 183.747 87.862C183.513 86.3471 183.102 84.849 182.785 83.3453C182.568 82.4509 182.474 81.9981 182.262 81.1092C182.051 80.3658 181.812 79.6223 181.595 78.9012C179.791 72.9473 177.338 67.2124 174.28 61.8012C170.811 55.585 166.175 49.9894 161.355 44.8577C153.158 36.3285 143.524 29.326 132.899 24.1744C123.81 19.7999 113.928 17.342 103.859 16.9521L101.08 16.857C99.9678 16.9073 99.4119 16.9409 98.3001 17.0024C96.4212 17.1421 94.5367 17.1868 92.7022 17.5055C90.8678 17.8241 88.9833 18.0645 87.1433 18.4446C85.3033 18.8247 83.5411 19.2943 81.7844 19.8198C76.8662 21.3471 72.106 23.3483 67.5702 25.7955L68.4152 26.1589C67.0578 27.1396 65.6372 28.0285 64.1626 28.8198C62.9285 29.5744 61.611 30.3403 60.4103 31.1341C59.2688 31.9143 58.1856 32.7774 57.1694 33.7167C56.9723 33.9112 56.7475 34.0751 56.5023 34.203C55.3719 34.6889 54.3161 35.3345 53.3671 36.1204C52.4499 36.8806 51.6494 37.7471 50.671 38.5129C51.0212 38.9713 50.7711 39.7763 51.5215 39.9105C52.4332 39.1726 53.1892 38.5297 53.9841 37.8924C55.9854 36.4018 58.0403 34.9465 60.149 33.5266C61.6555 32.4421 63.2731 31.4247 64.8574 30.4129C66.4417 29.4011 68.1928 28.4564 69.8938 27.5508C71.7783 26.6788 73.6128 25.667 75.6196 24.9067C76.6146 24.5322 77.6041 24.1465 78.6325 23.8223C79.6609 23.498 80.7282 23.2632 81.7956 23.1011C82.2847 23.0229 82.8295 22.8608 83.3965 22.7266C83.9635 22.5924 84.5583 22.4303 85.1031 22.2682C88.1383 21.3794 91.5904 21.1502 94.6145 20.2111C95.7449 20.0214 96.8875 19.9149 98.0332 19.8924L101.03 19.7359L103.992 19.8533L106.95 19.9763C107.934 20.0434 108.901 20.1999 109.863 20.3173C110.342 20.3716 110.815 20.4631 111.28 20.5912C111.964 20.8036 112.659 20.9825 113.37 21.1502L115.516 21.7092C116.956 22.0949 118.485 22.3744 119.908 22.7937C121.136 23.1252 122.341 23.5379 123.515 24.0291C125.072 24.7278 126.651 25.421 128.202 26.1086C129.753 26.7962 131.415 27.4111 132.932 28.2272L136.551 30.0216C137.73 30.6757 138.875 31.3744 140.026 32.062C148.986 37.5236 156.944 44.4956 163.551 52.6726C164.991 54.3049 166.197 56.1384 167.442 57.8434C168.633 59.605 169.711 61.4403 170.672 63.3384C170.917 63.7912 171.2 64.2943 171.45 64.7863C171.677 65.249 171.93 65.6988 172.206 66.1335C173.221 67.6194 174.055 69.2221 174.691 70.9074C175.325 72.5844 175.92 74.2614 176.703 75.849C177.115 77.744 177.621 79.6055 178.199 81.4782C178.777 83.3509 179.161 85.3018 179.566 87.2192C179.972 89.1366 180.183 91.2776 180.428 93.3012C180.673 95.3248 180.656 97.4322 180.756 99.5006C180.78 99.7897 180.769 100.081 180.723 100.367C180.676 100.651 180.555 100.917 180.372 101.138C180.267 101.2 180.044 100.92 180.028 100.652C179.878 99.5341 179.694 98.3322 179.622 97.1695C179.113 87.3777 176.607 77.7956 172.262 69.0179C171.773 68.0509 171.523 67.5757 171.022 66.603C170.623 65.7842 170.178 64.9891 169.688 64.2217C168.715 62.7012 167.781 61.108 166.781 59.5987C163.033 54.0906 158.677 49.0272 153.795 44.5055L151.933 42.8285L151.01 41.9788L150.026 41.1962C148.72 40.1452 147.424 39.0943 146.096 38.0602C144.423 36.8862 143.589 36.3272 141.943 35.2092C140.57 34.2365 139.075 33.3924 137.652 32.5372C137.001 32.1347 136.334 31.7322 135.662 31.3577C134.828 30.944 134.428 30.726 133.594 30.3123L131.543 29.2502C130.865 28.8819 130.167 28.5534 129.452 28.2664L125.239 26.3881C123.132 25.6167 120.992 24.9067 118.835 24.2583L115.499 23.4589C114.388 23.2129 113.276 22.8999 112.164 22.7769C109.757 22.4695 107.333 21.9775 104.849 21.9496C103.359 21.8881 102.625 21.8545 101.141 21.8042C99.8955 21.8042 98.6336 21.916 97.3995 21.9664C94.9038 22.124 92.42 22.4339 89.9617 22.8943C89.3446 23.0005 88.722 23.0676 88.1161 23.2185C87.3934 23.3862 87.0376 23.4869 86.315 23.6546C85.1254 23.9844 83.9135 24.2136 82.7406 24.6216C79.4719 25.6502 76.3811 27.0198 73.2459 28.2272C72.9179 28.397 72.5988 28.5836 72.2897 28.7862C73.0235 28.9092 72.4843 29.4515 71.3392 30.1111C70.0884 30.8266 68.7987 31.6036 67.5646 32.3471C65.3022 33.8173 62.834 35.2316 61.044 36.9254C61.044 36.9254 60.9828 36.9701 60.9551 37.0036C60.3658 37.4788 59.7488 37.926 59.2151 38.4291C58.9705 39.6813 56.5635 41.0844 55.2682 42.4819C56.0576 42.6831 56.3022 42.6328 56.9748 42.0179C57.6475 41.403 58.5703 40.721 59.3652 40.0782C60.1437 39.4641 60.8861 38.8053 61.5888 38.1049C62.3914 37.2254 63.4365 36.6065 64.5906 36.3272C64.9909 36.2322 65.4856 36.0421 65.8358 35.9359C66.5251 35.4384 67.2089 34.9465 67.8426 34.5049C68.4763 34.0633 69.1212 33.6664 69.6159 33.2583C71.1587 31.9509 73.0528 31.1337 75.0581 30.9105C76.2263 30.8138 77.3743 30.5464 78.4657 30.1167C79.6776 29.6303 80.1334 29.8316 80.4836 30.0608C81.9123 29.4459 83.3854 28.8477 84.8419 28.2552C86.3372 27.7633 87.8326 27.2434 89.289 26.7794L91.1235 27.0924C91.8239 26.7403 92.4687 26.4328 93.1025 26.0974C94.1514 25.7448 95.2231 25.4647 96.31 25.2589C97.9443 25.421 99.523 25.8179 101.357 25.2589C101.441 25.4713 101.508 25.6837 101.591 25.9297C103.303 25.8514 104.871 25.79 106.777 25.7117C106.978 26.1701 108 26.4384 109.201 26.6005C110.402 26.7626 111.775 27.0701 112.876 26.8688C114.048 26.7546 115.229 26.9471 116.306 27.4278C116.306 27.6347 116.306 27.7688 116.306 27.9869C116.928 28.1434 117.251 28.216 117.879 28.3558C118.39 28.5011 118.896 28.6632 119.413 28.831C120.436 29.1496 121.453 29.4906 122.476 29.8092C123.292 29.7977 124.096 30.0061 124.805 30.4129C125.455 30.7678 126.075 31.1774 126.656 31.6372C126.723 31.6372 126.779 31.6372 126.829 31.6372H126.656C127.24 31.8831 127.857 32.1235 128.452 32.3695C129.047 32.6154 129.619 32.9285 130.186 33.1856C130.292 33.1924 130.398 33.1924 130.503 33.1856C131.543 33.0738 131.837 33.1856 132.543 34.08C132.71 34.2869 132.86 34.4937 132.888 34.5384C133.615 34.9038 134.319 35.3146 134.995 35.7682C135.662 36.1987 136.329 36.6179 136.985 37.0316C137.641 37.4452 138.325 37.8421 138.942 38.2614C139.559 38.6806 140.192 39.1334 140.815 39.5806C142.043 40.4527 143.355 41.2912 144.706 42.1856C146.052 43.186 147.319 44.2886 148.497 45.4838C149.292 46.1993 150.098 46.9539 150.904 47.7198C151.71 48.4856 152.528 49.1956 153.256 50.0005C156.108 52.8724 158.732 55.9638 161.105 59.2465C161.423 59.5754 161.78 59.8645 162.167 60.1074C162.524 60.9646 162.944 61.7942 163.423 62.5894C163.92 63.5302 164.477 64.4377 165.091 65.3061C165.836 66.3546 166.469 67.4787 166.981 68.6602C167.32 69.4819 167.72 70.3036 168.093 71.0974C168.465 71.8912 168.899 72.6962 169.204 73.5124C169.877 75.1391 170.694 76.7602 171.278 78.4204C171.539 79.1751 171.917 79.8962 172.256 80.6565C172.779 81.7745 172.256 82.1993 172.629 83.2167C172.759 83.6222 172.867 84.0346 172.951 84.4521C174.522 90.7126 175.229 97.1606 175.052 103.615C174.923 110.395 173.866 117.125 171.912 123.616C169.972 129.989 167.82 135.808 164.585 141.225C163.684 142.611 162.778 143.992 161.889 145.373C161.667 145.714 161.466 146.066 161.222 146.396C160.977 146.725 160.766 146.994 160.455 147.385L158.987 149.336C158.47 149.979 158.009 150.666 157.453 151.281C156.775 152.019 156.452 152.399 155.785 153.132C154.673 154.361 153.562 155.597 152.366 156.709C146.951 161.733 140.821 165.916 134.178 169.119C130.704 170.803 127.104 172.209 123.41 173.323C117.144 175.17 110.649 176.111 104.12 176.118C100.948 176.175 97.7741 176.055 94.6145 175.76L92.5521 175.525L90.5064 175.168L87.2211 174.57C85.9203 174.24 85.2699 174.061 83.9691 173.737C83.1686 173.519 82.3681 173.25 82.2736 172.775L84.1692 172.361H84.2359C83.7256 172.318 83.2187 172.242 82.7183 172.132C81.5232 171.808 80.3336 171.4 79.1328 171.014C78.4268 170.779 78.0766 170.668 77.3595 170.455C76.6424 170.243 76.3089 170.042 75.6029 169.773C74.2132 169.214 73.5072 168.929 72.1174 168.359L68.6987 166.743C68.2706 166.531 67.8482 166.319 67.4034 166.112L66.1527 165.379C65.342 164.909 64.4802 164.534 63.5844 164.261C63.0938 164.076 62.6401 163.803 62.2447 163.456C60.388 161.807 58.3034 160.438 56.3411 158.873C55.2682 158.006 54.1175 157.196 53.1003 156.229C52.083 155.261 51.4326 154.697 50.3541 153.679C49.4591 152.819 48.6364 151.874 47.7748 150.979C47.2689 150.42 47.0188 150.158 46.5073 149.61C45.9959 149.062 45.7902 148.738 45.3177 148.151C44.3894 146.983 43.9169 146.396 42.983 145.238C41.5821 143.165 40.0367 141.174 38.7971 139.022C38.1689 137.938 37.4685 136.893 36.8792 135.797C36.1733 134.472 35.8286 133.807 35.1115 132.482C32.5873 127.492 30.5004 122.29 28.8744 116.936C27.2477 111.538 26.1091 106.004 25.4723 100.401C25.3409 99.4282 25.3 98.4457 25.35 97.4658C25.4417 96.6232 25.4696 95.7748 25.4334 94.9279C25.4334 94.0894 25.4334 93.2509 25.4334 92.4012C25.4334 91.2832 25.4778 90.0981 25.5279 88.9521C25.5779 87.8061 25.7113 86.6602 25.7725 85.5366C25.8114 84.944 25.8614 84.3291 25.9281 83.7366C26.0449 83.0322 26.1004 82.6689 26.2172 81.9533C26.4283 80.787 26.5473 79.6057 26.573 78.4204C26.4062 78.0571 26.295 77.6937 26.156 77.3024C26.2617 76.7825 26.3617 76.2291 26.5174 75.4241C25.8058 74.9155 25.1221 74.4235 24.405 73.926C24.1826 74.0099 24.0214 74.2558 23.4377 75.1055C22.9763 75.7763 22.5427 77.6937 22.2092 79.0186C22.1647 79.2142 22.0257 79.2869 21.9368 79.421C21.6866 79.0968 21.77 78.3813 21.8923 77.621C22.0146 76.8608 22.2425 76.067 22.1036 75.5527C21.8625 76.0371 21.676 76.5471 21.5477 77.0732C21.4309 77.6322 21.3587 78.2192 21.2697 78.7782C21.1886 79.8458 20.9312 80.8925 20.5081 81.8751C20.4081 81.3887 20.308 80.9248 20.1579 80.2316C20.0134 81.0701 19.8689 81.9086 19.7355 82.7192C19.602 83.5297 19.5242 84.3962 19.4575 85.1565C19.2601 86.7547 19.171 88.3647 19.1907 89.9751C19.1907 90.6068 19.2296 91.5627 18.8127 91.6521C18.6095 90.5655 18.4905 89.4647 18.4569 88.3596C18.5554 87.0739 18.7299 85.7952 18.9794 84.5304C18.329 83.3061 17.6231 84.7651 16.9727 85.2459C16.8588 85.5283 16.7695 85.82 16.7058 86.118C16.9004 86.7496 17.1061 87.3869 17.3062 88.013C16.6002 91.367 16.6502 91.4006 15.7552 90.1987C15.7033 90.141 15.6585 90.0772 15.6218 90.0086C15.0659 88.7732 14.4489 89.2652 13.9541 90.7745C13.4594 92.2838 12.8424 93.9049 12.3476 95.6322C12.0863 94.7043 11.9362 93.9552 11.7584 93.1167C11.3581 95.7776 11.1358 92.049 10.6744 93.1167C11.0114 101.244 12.2021 109.312 14.2265 117.188C14.7824 119.485 15.3828 121.878 16.061 124.197C15.7499 123.602 15.4716 122.99 15.2271 122.364C14.9492 121.531 14.8047 121.123 14.5267 120.29C14.3044 119.608 14.132 118.893 13.9263 118.199C13.4761 116.522 13.2482 115.667 12.7868 113.984C12.4254 112.274 12.2309 111.413 11.8695 109.697C11.6917 108.836 11.5972 108.411 11.4248 107.55C11.2525 106.689 11.2191 106.259 11.0857 105.392C10.88 104.157 10.7022 102.911 10.5298 101.664C10.3575 100.417 10.313 99.1204 10.2352 97.8683C10.1574 96.6161 10.0573 95.3192 10.0518 94.0502C10.0462 92.7813 10.0518 91.4956 10.0518 90.2434C10.0518 88.3819 10.1018 86.5092 10.1407 84.6533C10.1407 83.7422 10.1407 82.831 10.1741 81.9366C10.2074 81.0422 10.2352 80.2596 10.2463 79.421C10.2568 79.3811 10.2698 79.3419 10.2852 79.3037C10.2852 79.3037 10.2463 79.3372 10.2408 79.3484C10.2377 79.3224 10.2377 79.2961 10.2408 79.2701C10.2351 79.2978 10.2351 79.3263 10.2408 79.354C9.99617 79.572 9.74046 79.913 9.55146 79.8403C9.36245 79.7676 9.27907 79.1304 9.10674 78.6384C8.80656 79.6838 8.50638 80.4999 8.31737 81.4335C8.22361 82.458 7.90053 83.4479 7.37235 84.3291C6.9999 84.8881 6.67748 84.8266 6.41621 84.1335C6.41621 84.0664 6.37174 83.9825 6.3495 83.9043C6.33574 83.9498 6.33574 83.9985 6.3495 84.044C5.43228 83.2279 4.77632 81.0478 4.70406 77.6378C3.24205 79.0577 3.38103 76.1453 3.14199 73.1658C2.6806 73.0931 2.98078 73.2049 2.5861 73.2217C1.52434 73.3111 0.629346 80.662 0.201307 84.9217ZM59.3318 28.9595C59.2318 28.9595 59.3318 28.831 59.3318 28.7527C59.4307 28.7087 59.5357 28.6804 59.6431 28.6688C59.7488 28.6688 59.8321 28.7247 59.9155 28.7471C59.728 28.836 59.5326 28.9071 59.3318 28.9595ZM76.6257 12.575C74.997 13.0502 73.4905 13.4806 71.9173 13.7881C73.3991 13.0738 74.9233 12.4521 76.4812 11.9266C78.1571 11.3388 79.8899 10.9303 81.651 10.708C79.8388 11.3955 78.2378 12.1055 76.6257 12.575ZM83.0463 12.5303L82.874 12.4129C82.9938 12.3956 83.1155 12.3956 83.2353 12.4129C83.2687 12.4185 83.1186 12.5024 83.0463 12.5303ZM127.207 18.2154C126.578 18.0912 125.957 17.9345 125.344 17.7459C117.721 15.1261 109.725 13.7668 101.669 13.721C101.202 13.721 100.746 13.5813 99.0894 13.4583C100.588 13.2721 102.1 13.2123 103.609 13.2794C111.847 13.6483 120.169 15.0011 127.512 18.1427C127.334 18.1875 127.301 18.2378 127.207 18.2154ZM135.25 21.8993C135.178 21.7875 134.995 21.5862 135.073 21.5862C135.336 21.6475 135.595 21.7298 135.845 21.8322C135.912 21.9664 135.94 22.0334 136.001 22.1676L135.25 21.8993ZM53.1392 37.9707C53.0336 38.0042 52.9835 38.0322 52.8779 38.0713C52.9279 38.0098 52.9502 37.926 53.0113 37.8813C53.0725 37.8365 53.2114 37.7639 53.2504 37.7806C53.2893 37.7974 53.1836 37.8924 53.1392 37.9707ZM61.233 37.1042C61.1966 37.0928 61.1633 37.0732 61.1354 37.0471C61.1075 37.021 61.0858 36.989 61.0718 36.9533C61.2364 36.8796 61.4053 36.8161 61.5777 36.7633C61.661 36.7633 61.6722 36.7633 61.7111 36.808C61.5579 36.9165 61.3982 37.0154 61.233 37.1042ZM92.2797 25.667C93.1803 25.6334 93.1303 25.8459 93.0913 26.0527C92.7411 25.9465 91.924 25.9856 92.2797 25.667ZM99.5064 24.7837C100.235 24.9459 100.724 25.0185 101.23 25.1806C100.529 25.1471 99.6787 25.2589 99.5064 24.7837ZM121.892 28.2272L123.982 28.5067L125.617 28.8477C126.084 29.3341 126.445 29.731 126.995 30.3123C125.252 29.7413 123.552 29.0445 121.909 28.2272H121.892ZM149.592 177.543H149.743C149.615 177.616 149.554 177.661 149.42 177.734L149.592 177.543ZM95.4928 176.079C95.604 176.129 95.4928 176.224 95.4928 176.302C95.2658 176.271 95.0411 176.224 94.8202 176.163C94.7308 176.065 94.6728 175.942 94.6534 175.811C94.9369 175.9 95.2538 175.984 95.4928 176.079ZM58.2478 162.076C58.1808 162.073 58.1149 162.058 58.0533 162.031C58.0601 161.966 58.0601 161.9 58.0533 161.835C58.1255 161.953 58.2256 162.042 58.2256 162.104L58.2478 162.076ZM24.833 143.343C24.8664 143.522 24.9053 143.679 24.9331 143.841C24.783 143.64 24.6384 143.45 24.4939 143.226C24.462 143.119 24.4415 143.008 24.4328 142.896C24.594 143.097 24.6774 143.159 24.833 143.343ZM11.7417 98.1534C11.7806 98.1198 11.8251 98.036 11.8473 98.0695C11.8849 98.1667 11.911 98.268 11.9251 98.3714C11.8973 98.4888 11.8862 98.5447 11.864 98.662C11.8195 98.4552 11.7917 98.377 11.7417 98.1534ZM19.6854 103.078C19.5528 102.912 19.4528 102.723 19.3908 102.519C18.8383 100.231 18.6414 97.8697 18.8071 95.5204C19.1184 95.2353 19.2018 95.895 19.2407 96.4484C19.3074 97.8235 19.3519 98.5111 19.4242 99.8807C19.4797 100.999 19.6409 102.072 19.7632 103.173C19.7632 103.173 19.7632 103.173 19.7632 103.212C19.7404 103.166 19.7144 103.121 19.6854 103.078ZM19.7744 103.291C19.777 103.27 19.777 103.25 19.7744 103.229C19.7744 103.229 19.7744 103.229 19.8022 103.229C19.806 103.251 19.806 103.274 19.8022 103.296C19.7925 103.297 19.7828 103.295 19.7744 103.291ZM19.7021 104.856C19.7021 104.297 19.7466 103.844 19.7744 103.352C19.8633 103.911 19.9467 104.526 20.0134 105.091C20.0298 105.325 20.013 105.56 19.9634 105.789C19.8527 105.485 19.7653 105.173 19.7021 104.856ZM22.9819 140.04C22.8429 140.397 22.426 139.738 22.1981 139.246C21.8135 138.358 21.4849 137.447 21.2141 136.518C21.8871 137.647 22.4779 138.824 22.9819 140.04ZM18.6403 130.799C18.9016 131.392 19.1629 132.001 19.4297 132.605C19.9856 133.796 20.4859 135.014 21.0362 136.171L20.8139 135.976C20.7027 135.87 20.6026 135.758 20.497 135.64C20.4252 135.552 20.3619 135.456 20.308 135.355C19.7966 134.355 19.2852 133.309 18.8127 132.258C18.6737 131.867 18.5292 131.481 18.3846 131.084C18.2401 130.688 18.1289 130.319 18.0233 129.922C17.9788 129.799 17.9344 129.665 17.8954 129.519C17.8565 129.374 17.8454 129.273 17.8121 129.156C18.1122 129.681 18.3846 130.24 18.6403 130.799ZM16.1221 124.566C16.4279 125.243 16.7225 125.942 17.0004 126.663C17.1394 127.037 17.2673 127.406 17.3896 127.814C17.4841 128.122 17.5786 128.429 17.662 128.77C17.0979 127.81 16.6447 126.787 16.3111 125.724C16.2668 125.565 16.2316 125.405 16.2055 125.243C16.1671 125.058 16.1411 124.872 16.1277 124.684C16.1327 124.634 16.1327 124.583 16.1277 124.533C16.1277 124.533 16.1221 124.55 16.1221 124.566ZM10.0851 80.2428C10.0975 80.0843 10.1235 79.9272 10.1629 79.7732C10.1522 79.7386 10.1522 79.7016 10.1629 79.667C10.1463 79.8962 10.124 80.0024 10.0851 80.2428ZM6.32727 84.4297C6.3429 84.8677 6.25925 85.3036 6.08267 85.7043C6.01294 85.2637 6.09952 84.8126 6.32727 84.4297Z" fill="#9E28B5"/>
<path d="M139.375 157.894C133.997 161.435 128.154 164.203 122.014 166.117C114.773 168.278 107.214 169.163 99.673 168.734C94.5603 168.447 89.491 167.627 84.5471 166.285C69.9493 162.283 56.4744 153.512 47.6913 141.365C47.4078 140.979 47.0854 140.604 46.7741 140.219C47.1632 140.839 47.5301 141.482 47.9693 142.052C48.4084 142.622 48.8365 143.209 49.2645 143.791C49.6925 144.372 50.115 144.937 50.5208 145.507C50.9266 146.077 51.388 146.625 51.7883 147.184C52.102 147.607 52.4437 148.009 52.8111 148.386C57.2904 153.145 62.4525 157.204 68.126 160.427C69.7937 161.466 71.5392 162.243 73.1958 163.317C73.5842 163.583 73.9869 163.827 74.4021 164.049C74.8412 164.256 75.2748 164.474 75.7195 164.681C76.609 165.094 77.5373 165.48 78.4323 165.855C82.6052 167.409 86.9137 168.568 91.3013 169.315C96.441 170.189 101.663 170.472 106.866 170.159C108.534 170.159 110.263 169.835 111.925 169.656C118.292 168.882 124.506 167.141 130.353 164.491C134.788 162.468 138.985 159.954 142.866 156.994C145.781 154.851 148.472 152.416 150.899 149.727C151.633 148.934 152.011 148.537 152.744 147.726C153.378 147.072 153.856 146.306 154.412 145.602C155.074 144.735 155.401 144.299 156.08 143.438C156.636 142.729 157.075 141.924 157.575 141.169C161.584 134.943 164.568 128.108 166.414 120.927C168.498 113.338 169.289 105.449 168.754 97.5944C168.188 89.4508 166.144 81.4802 162.723 74.077C159.196 66.6631 154.465 59.8921 148.725 54.0422C142.916 48.1847 136.254 43.25 128.969 39.4074C126.439 38.0434 123.743 36.903 121.097 35.7906L116.995 34.4155C115.627 33.9682 114.176 33.7167 112.798 33.3589C111.235 33.033 109.65 32.8256 108.056 32.7384C107.378 33.2974 105.688 32.8838 104.404 33.0571L105.732 33.549C105.73 33.536 105.73 33.5228 105.732 33.5099C106.511 33.6105 107.283 33.8005 108.067 33.9012C114.717 34.869 121.17 36.9036 127.179 39.9273C131.929 42.3239 136.427 45.1968 140.604 48.5024C144.765 51.7723 148.572 55.4748 151.961 59.5484C156.993 65.5305 160.944 72.3529 163.634 79.7062C166.259 86.9683 167.603 94.6357 167.603 102.363C167.576 107.868 166.923 113.352 165.658 118.708C164.36 124.027 162.496 129.191 160.099 134.109C155.946 143.042 147.558 152.601 139.375 157.894ZM110.624 33.4987C110.696 33.4987 110.735 33.4987 110.808 33.4987C110.815 33.528 110.815 33.5588 110.808 33.5881L110.624 33.4987Z" fill="#9E28B5"/>
<path d="M104.353 33.0564H104.38L104.27 33.0123L104.353 33.0564Z" fill="#793E91"/>
<path d="M44.5396 46.8309C44.6007 47.0881 44.6063 47.3899 45.5735 46.7695C46.6853 45.3719 47.9917 43.8123 49.2536 42.2974C50.0763 41.3024 50.1485 40.2179 49.4981 40.3297C49.059 40.4024 48.0139 41.2073 47.0633 42.2303C46.4407 42.9011 45.9015 43.6055 45.3956 44.2875C44.7397 45.1483 44.0949 46.0092 43.4834 46.8813C44.017 46.6129 44.4729 46.5011 44.5396 46.8309Z" fill="#9E28B5"/>
<path d="M43.3608 46.9489H43.4406V46.9204L43.3608 46.9489Z" fill="#793E91"/>
<path d="M221.937 196.544C218.271 192.907 216.441 188.621 216.444 183.687C216.448 178.753 218.279 174.447 221.937 170.768C225.598 167.086 229.86 165.245 234.722 165.245C239.584 165.245 243.846 167.086 247.508 170.768C251.166 174.454 252.996 178.76 253 183.687C253.004 188.614 251.173 192.899 247.508 196.544C243.846 200.181 239.584 202 234.722 202C229.86 202 225.598 200.181 221.937 196.544Z" fill="#FBBC42"/>
<path d="M245.979 146.882H223.449L217.817 1.13779H251.61L245.979 146.882Z" fill="#9E28B5"/>
</svg>
