<svg width="45" height="47" viewBox="0 0 45 47" fill="none" xmlns="http://www.w3.org/2000/svg">
<path fill-rule="evenodd" clip-rule="evenodd" d="M10.7335 1.92685C10.7681 1.94519 10.8027 1.96358 10.8375 1.98203L39.1347 17.0016C39.1549 17.0117 39.175 17.0221 39.195 17.0327L39.3032 17.0901C40.4249 17.6854 41.4338 18.2209 42.2011 18.7227C42.9687 19.2247 43.9348 19.9619 44.4784 21.1343C45.1739 22.6343 45.1739 24.3641 44.4784 25.8642C43.9346 27.037 42.9678 27.7751 42.1988 28.2783C41.4277 28.7828 40.4132 29.3212 39.2841 29.9205L10.743 45.0695C9.7285 45.6081 8.8021 46.0999 8.01581 46.429C7.21248 46.7652 6.14672 47.1169 4.94419 46.9626C3.3789 46.7617 1.96638 45.9209 1.04938 44.6377C0.345971 43.6535 0.15695 42.5508 0.0774384 41.6877C-0.000167537 40.8454 -8.44052e-05 39.8042 6.15855e-06 38.6648L1.22412e-05 8.45504C1.22412e-05 8.41581 9.19987e-06 8.3767 6.15855e-06 8.3377C-8.44052e-05 7.19808 -0.000167199 6.15647 0.0774194 5.31364C0.156843 4.45085 0.345632 3.34704 1.04938 2.3623C1.96627 1.07932 3.37871 0.238308 4.94419 0.037364C6.14822 -0.117185 7.21548 0.23639 8.0175 0.572519C8.80096 0.90087 9.72395 1.39087 10.7335 1.92685ZM5.73232 5.73783C5.72925 5.76583 5.72619 5.79599 5.72321 5.8284C5.67228 6.38165 5.66945 7.15909 5.66945 8.45504V38.5473C5.66945 39.8433 5.67229 40.62 5.72319 41.1726C5.72617 41.2049 5.72922 41.235 5.73229 41.2629C5.75884 41.2523 5.78736 41.2407 5.81789 41.228C6.33114 41.0131 7.02101 40.6505 8.16953 40.0409L36.5167 24.9948C37.7841 24.322 38.5599 23.9068 39.0842 23.5637C39.1189 23.541 39.1508 23.5196 39.18 23.4997C39.1517 23.4804 39.1209 23.4598 39.0875 23.4379C38.5716 23.1005 37.8119 22.6933 36.5769 22.0377C36.5567 22.0276 36.5366 22.0172 36.5167 22.0066L8.16953 6.96052C7.02133 6.35108 6.33124 5.98799 5.81713 5.77253C5.78691 5.75986 5.75866 5.74833 5.73232 5.73783Z" fill="#9E28B5"/>
</svg>
