<?xml version="1.0" encoding="UTF-8"?><svg id="Layer_2" xmlns="http://www.w3.org/2000/svg" viewBox="0 0 540.39 150.55"><defs><style>.cls-1{fill:#181716;}</style></defs><g id="Layer_1-2"><g><polygon class="cls-1" points="414.39 111.36 468.01 2.47 497.29 1.37 428.4 136.07 391.77 137.44 370.87 17.04 368.99 6.19 398.37 5.09 414.39 111.36 414.39 111.36"/><polygon class="cls-1" points="65.07 123.21 118.05 15.61 147.31 14.51 78.35 149.34 42.66 150.55 39.86 134.41 22.7 35.56 0 20.04 49.24 18.19 65.07 123.21 65.07 123.21"/><polygon class="cls-1" points="155.39 14.21 182.94 13.17 159.65 146.01 132.12 146.94 135.15 129.63 155.39 14.21 155.39 14.21"/><polygon class="cls-1" points="242.74 143.19 170.83 145.63 194.04 12.76 221.58 11.72 202.91 120.56 255.4 118.77 242.74 143.19 242.74 143.19"/><polygon class="cls-1" points="356.68 6.65 319.9 8.03 251.82 142.88 281.06 141.89 334.78 28.06 349.14 139.04 378.53 137.94 356.68 6.65 356.68 6.65"/><polygon class="cls-1" points="507 1.01 533.86 0 511.22 132.96 483.68 133.99 487.54 111.99 507 1.01 507 1.01"/><path class="cls-1" d="M530.13,119.36h-1.58v2.18h1.58c.71,0,1.2-.36,1.2-1.09s-.49-1.09-1.2-1.09h0Zm-1.58,0h0v2.18h1.58c.71,0,1.2-.36,1.2-1.09s-.49-1.09-1.2-1.09h-1.58Zm8.74-4.73h0c-2.02-2.03-4.71-3.16-7.56-3.17h-.04c-5.89,0-10.69,4.78-10.71,10.68-.01,2.86,1.1,5.55,3.11,7.59,2.02,2.03,4.71,3.16,7.56,3.17h.04c2.84,0,5.52-1.11,7.54-3.11,2.03-2.02,3.16-4.71,3.17-7.56,.01-2.86-1.1-5.55-3.11-7.59h0Zm-5.42,11.99h0l-2.25-3.06h-1.08v3.06h-2.49v-9.41h3.97c1.91,0,3.86,.69,3.86,3.17,0,1.56-.77,2.41-1.8,2.82l2.59,3.42h-2.81Zm-1.74-7.26h-1.58v2.18h1.58c.71,0,1.2-.36,1.2-1.09s-.49-1.09-1.2-1.09h0Z"/></g></g></svg>